<?xml version="1.0" encoding="UTF-8"?>
<!DOCTYPE svg PUBLIC "-//W3C//DTD SVG 1.1//EN" "http://www.w3.org/Graphics/SVG/1.1/DTD/svg11.dtd">
<svg xmlns="http://www.w3.org/2000/svg" version="1.1" width="600px" height="600px" style="shape-rendering:geometricPrecision; text-rendering:geometricPrecision; image-rendering:optimizeQuality; fill-rule:evenodd; clip-rule:evenodd" xmlns:xlink="http://www.w3.org/1999/xlink">
<g><path style="opacity:0.999" fill="#3e3245" d="M 343.5,327.5 C 342.656,324.655 341.99,321.655 341.5,318.5C 341.5,317.833 341.5,317.167 341.5,316.5C 345.328,301.857 349.161,287.19 353,272.5C 355.677,270.959 358.51,269.959 361.5,269.5C 362.791,268.458 362.791,267.292 361.5,266C 359.527,265.505 357.527,265.338 355.5,265.5C 356.91,262.05 357.576,258.384 357.5,254.5C 359.099,254.768 360.432,254.434 361.5,253.5C 362.791,252.458 362.791,251.292 361.5,250C 355.319,249.181 349.319,249.347 343.5,250.5C 342.596,251.209 342.263,252.209 342.5,253.5C 338.5,253.5 334.5,253.5 330.5,253.5C 330.616,250.09 328.95,248.756 325.5,249.5C 325.693,245.434 325.36,241.434 324.5,237.5C 337.167,237.5 349.833,237.5 362.5,237.5C 362.67,236.178 362.337,235.011 361.5,234C 348.838,233.5 336.171,233.333 323.5,233.5C 322.762,229.285 321.428,225.285 319.5,221.5C 324.5,221.5 329.5,221.5 334.5,221.5C 334.5,220.167 334.5,218.833 334.5,217.5C 328.974,217.179 323.64,217.512 318.5,218.5C 316.452,214.074 314.118,209.74 311.5,205.5C 328.17,205.667 344.837,205.5 361.5,205C 362.337,203.989 362.67,202.822 362.5,201.5C 344.659,201.17 326.992,201.503 309.5,202.5C 306.198,198.191 302.864,193.857 299.5,189.5C 320.169,189.667 340.836,189.5 361.5,189C 362.791,187.708 362.791,186.542 361.5,185.5C 339.5,184.167 317.5,184.167 295.5,185.5C 291.141,181.472 286.807,177.472 282.5,173.5C 296.167,173.5 309.833,173.5 323.5,173.5C 323.5,172.167 323.5,170.833 323.5,169.5C 308.167,169.5 292.833,169.5 277.5,169.5C 271.995,166.189 266.328,163.022 260.5,160C 253.153,158.043 245.819,158.043 238.5,160C 232.672,163.022 227.005,166.189 221.5,169.5C 206.833,169.5 192.167,169.5 177.5,169.5C 177.33,170.822 177.663,171.989 178.5,173C 191.162,173.5 203.829,173.667 216.5,173.5C 212.193,177.472 207.859,181.472 203.5,185.5C 183.167,184.167 162.833,184.167 142.5,185.5C 141.566,186.568 141.232,187.901 141.5,189.5C 160.833,189.5 180.167,189.5 199.5,189.5C 196.136,193.857 192.802,198.191 189.5,202.5C 184.766,201.176 179.933,201.176 175,202.5C 174.383,203.449 174.549,204.282 175.5,205C 179.486,205.499 183.486,205.666 187.5,205.5C 184.882,209.74 182.548,214.074 180.5,218.5C 167.677,217.505 154.677,217.171 141.5,217.5C 141.5,218.833 141.5,220.167 141.5,221.5C 154.167,221.5 166.833,221.5 179.5,221.5C 177.572,225.285 176.238,229.285 175.5,233.5C 164.167,233.5 152.833,233.5 141.5,233.5C 141.5,234.833 141.5,236.167 141.5,237.5C 152.5,237.5 163.5,237.5 174.5,237.5C 172.461,247.21 173.461,256.543 177.5,265.5C 165.829,265.333 154.162,265.5 142.5,266C 141.209,267.292 141.209,268.458 142.5,269.5C 144.842,270.008 147.009,271.008 149,272.5C 152.618,286.683 156.451,300.683 160.5,314.5C 160.5,314.833 160.5,315.167 160.5,315.5C 158.755,319.2 157.755,323.2 157.5,327.5C 109.54,284.016 94.7066,231.016 113,168.5C 134.216,114.621 173.382,82.7877 230.5,73C 292.524,67.4315 340.357,90.5982 374,142.5C 395.787,182.204 399.454,223.537 385,266.5C 378.966,282.244 370.632,296.577 360,309.5C 353.903,315.091 348.403,321.091 343.5,327.5 Z"/></g>
<g><path style="opacity:1" fill="#5eda46" d="M 142.5,152.5 C 153.505,152.333 164.505,152.5 175.5,153C 176.337,154.011 176.67,155.178 176.5,156.5C 164.833,156.5 153.167,156.5 141.5,156.5C 141.433,155.041 141.766,153.708 142.5,152.5 Z"/></g>
<g><path style="opacity:1" fill="#5eda46" d="M 191.5,152.5 C 230.167,152.5 268.833,152.5 307.5,152.5C 307.5,153.833 307.5,155.167 307.5,156.5C 268.5,156.5 229.5,156.5 190.5,156.5C 190.433,155.041 190.766,153.708 191.5,152.5 Z"/></g>
<g><path style="opacity:1" fill="#5eda46" d="M 331.5,152.5 C 341.506,152.334 351.506,152.5 361.5,153C 362.337,154.011 362.67,155.178 362.5,156.5C 352.167,156.5 341.833,156.5 331.5,156.5C 331.5,155.167 331.5,153.833 331.5,152.5 Z"/></g>
<g><path style="opacity:1" fill="#100b74" d="M 277.5,169.5 C 278.945,171.063 280.611,172.396 282.5,173.5C 286.807,177.472 291.141,181.472 295.5,185.5C 295.5,186.167 295.833,186.5 296.5,186.5C 297.167,187.833 298.167,188.833 299.5,189.5C 302.864,193.857 306.198,198.191 309.5,202.5C 309.932,203.71 310.599,204.71 311.5,205.5C 314.118,209.74 316.452,214.074 318.5,218.5C 318.557,219.609 318.89,220.609 319.5,221.5C 321.428,225.285 322.762,229.285 323.5,233.5C 323.833,234.833 324.167,236.167 324.5,237.5C 325.36,241.434 325.693,245.434 325.5,249.5C 324.508,258.809 321.508,267.476 316.5,275.5C 314.821,275.715 313.821,275.048 313.5,273.5C 324.064,254.515 323.897,235.515 313,216.5C 303.003,198.837 289.836,184.004 273.5,172C 267.916,168.041 261.916,164.875 255.5,162.5C 247.623,161.5 240.289,163 233.5,167C 221.473,173.861 211.14,182.694 202.5,193.5C 204.465,194.292 206.465,194.959 208.5,195.5C 208.631,191.535 210.298,188.535 213.5,186.5C 217.02,187.183 219.52,189.183 221,192.5C 231.95,182.63 244.784,178.797 259.5,181C 265.241,181.859 270.907,183.026 276.5,184.5C 282.073,186.62 287.407,189.287 292.5,192.5C 296.929,196.593 300.596,201.259 303.5,206.5C 303.5,208.167 303.5,209.833 303.5,211.5C 301.488,210.986 299.488,210.82 297.5,211C 300.298,215.097 302.131,219.597 303,224.5C 303.673,233.189 303.507,241.856 302.5,250.5C 305.642,250.799 307.809,252.466 309,255.5C 309.659,258.888 309.492,262.221 308.5,265.5C 306.458,273.042 301.792,278.208 294.5,281C 293.901,282.622 293.234,284.122 292.5,285.5C 291.167,285.5 290.5,284.833 290.5,283.5C 292.232,277.614 292.732,271.614 292,265.5C 289.391,263.254 287.557,260.587 286.5,257.5C 285.315,252.575 284.649,247.575 284.5,242.5C 281.941,242.198 279.607,242.532 277.5,243.5C 261.293,245.484 246.793,241.484 234,231.5C 234.524,234.218 235.357,236.885 236.5,239.5C 229.024,240.094 223.024,237.427 218.5,231.5C 217.385,239.751 215.385,247.751 212.5,255.5C 211.263,256.965 210.263,258.632 209.5,260.5C 207.004,263.036 206.004,266.203 206.5,270C 206.837,277.174 208.504,284.008 211.5,290.5C 210.508,290.328 209.842,290.662 209.5,291.5C 207.344,288.563 205.844,285.229 205,281.5C 192.857,275.881 188.191,266.548 191,253.5C 192.848,250.959 195.348,249.959 198.5,250.5C 196.714,242.253 196.214,233.92 197,225.5C 198.162,219.673 200.996,214.84 205.5,211C 202.471,208.824 199.471,206.657 196.5,204.5C 196.483,202.972 195.816,202.472 194.5,203C 182.578,218.099 177.078,235.266 178,254.5C 178.725,257.79 179.892,260.79 181.5,263.5C 183.026,268.885 185.36,273.885 188.5,278.5C 187.432,279.434 186.099,279.768 184.5,279.5C 182.216,275.927 180.216,272.26 178.5,268.5C 178.443,267.391 178.11,266.391 177.5,265.5C 173.461,256.543 172.461,247.21 174.5,237.5C 174.833,236.167 175.167,234.833 175.5,233.5C 176.238,229.285 177.572,225.285 179.5,221.5C 180.11,220.609 180.443,219.609 180.5,218.5C 182.548,214.074 184.882,209.74 187.5,205.5C 188.401,204.71 189.068,203.71 189.5,202.5C 192.802,198.191 196.136,193.857 199.5,189.5C 200.833,188.833 201.833,187.833 202.5,186.5C 203.167,186.5 203.5,186.167 203.5,185.5C 207.859,181.472 212.193,177.472 216.5,173.5C 218.389,172.396 220.055,171.063 221.5,169.5C 227.005,166.189 232.672,163.022 238.5,160C 245.819,158.043 253.153,158.043 260.5,160C 266.328,163.022 271.995,166.189 277.5,169.5 Z"/></g>
<g><path style="opacity:1" fill="#9da2b1" d="M 255.5,162.5 C 249.17,162.773 243.17,164.606 237.5,168C 228.744,173.265 220.744,179.432 213.5,186.5C 210.298,188.535 208.631,191.535 208.5,195.5C 206.465,194.959 204.465,194.292 202.5,193.5C 211.14,182.694 221.473,173.861 233.5,167C 240.289,163 247.623,161.5 255.5,162.5 Z"/></g>
<g><path style="opacity:1" fill="#4b586b" d="M 255.5,162.5 C 261.916,164.875 267.916,168.041 273.5,172C 289.836,184.004 303.003,198.837 313,216.5C 323.897,235.515 324.064,254.515 313.5,273.5C 311.199,276.81 308.866,280.143 306.5,283.5C 305.957,283.44 305.624,283.107 305.5,282.5C 309.874,277.086 313.208,271.086 315.5,264.5C 321.009,243.203 317.009,223.869 303.5,206.5C 300.596,201.259 296.929,196.593 292.5,192.5C 285.021,182.826 276.021,175.326 265.5,170C 270.647,174.316 274.314,179.149 276.5,184.5C 270.907,183.026 265.241,181.859 259.5,181C 244.784,178.797 231.95,182.63 221,192.5C 219.52,189.183 217.02,187.183 213.5,186.5C 220.744,179.432 228.744,173.265 237.5,168C 243.17,164.606 249.17,162.773 255.5,162.5 Z"/></g>
<g><path style="opacity:1" fill="#5ed847" d="M 141.5,169.5 C 148.167,169.5 154.833,169.5 161.5,169.5C 161.67,170.822 161.337,171.989 160.5,173C 154.5,173.667 148.5,173.667 142.5,173C 141.663,171.989 141.33,170.822 141.5,169.5 Z"/></g>
<g><path style="opacity:1" fill="#5ed947" d="M 221.5,169.5 C 220.055,171.063 218.389,172.396 216.5,173.5C 203.829,173.667 191.162,173.5 178.5,173C 177.663,171.989 177.33,170.822 177.5,169.5C 192.167,169.5 206.833,169.5 221.5,169.5 Z"/></g>
<g><path style="opacity:1" fill="#5ed947" d="M 277.5,169.5 C 292.833,169.5 308.167,169.5 323.5,169.5C 323.5,170.833 323.5,172.167 323.5,173.5C 309.833,173.5 296.167,173.5 282.5,173.5C 280.611,172.396 278.945,171.063 277.5,169.5 Z"/></g>
<g><path style="opacity:1" fill="#5ed647" d="M 334.5,169.5 C 343.833,169.5 353.167,169.5 362.5,169.5C 362.67,170.822 362.337,171.989 361.5,173C 352.833,173.667 344.167,173.667 335.5,173C 334.663,171.989 334.33,170.822 334.5,169.5 Z"/></g>
<g><path style="opacity:1" fill="#2f366d" d="M 292.5,192.5 C 287.407,189.287 282.073,186.62 276.5,184.5C 274.314,179.149 270.647,174.316 265.5,170C 276.021,175.326 285.021,182.826 292.5,192.5 Z"/></g>
<g><path style="opacity:1" fill="#466045" d="M 142.5,185.5 C 162.833,184.167 183.167,184.167 203.5,185.5C 203.5,186.167 203.167,186.5 202.5,186.5C 182.674,185.503 162.674,185.17 142.5,185.5 Z"/></g>
<g><path style="opacity:1" fill="#cf9ba9" d="M 282.5,191.5 C 274.089,189.459 265.589,187.792 257,186.5C 253.796,187.759 250.463,188.759 247,189.5C 238.582,186.757 231.415,188.924 225.5,196C 224.552,196.483 223.552,196.649 222.5,196.5C 227.213,190.137 233.547,186.304 241.5,185C 254.185,183.468 266.518,184.801 278.5,189C 280.066,189.608 281.4,190.442 282.5,191.5 Z"/></g>
<g><path style="opacity:1" fill="#466045" d="M 361.5,185.5 C 339.66,185.169 317.994,185.503 296.5,186.5C 295.833,186.5 295.5,186.167 295.5,185.5C 317.5,184.167 339.5,184.167 361.5,185.5 Z"/></g>
<g><path style="opacity:1" fill="#5edf46" d="M 142.5,185.5 C 162.674,185.17 182.674,185.503 202.5,186.5C 201.833,187.833 200.833,188.833 199.5,189.5C 180.167,189.5 160.833,189.5 141.5,189.5C 141.232,187.901 141.566,186.568 142.5,185.5 Z"/></g>
<g><path style="opacity:1" fill="#5edf46" d="M 361.5,185.5 C 362.791,186.542 362.791,187.708 361.5,189C 340.836,189.5 320.169,189.667 299.5,189.5C 298.167,188.833 297.167,187.833 296.5,186.5C 317.994,185.503 339.66,185.169 361.5,185.5 Z"/></g>
<g><path style="opacity:1" fill="#ac3e52" d="M 282.5,191.5 C 289.376,194.374 294.709,199.041 298.5,205.5C 296.167,206.167 293.833,206.833 291.5,207.5C 292.63,208.622 293.297,209.956 293.5,211.5C 295.244,222.204 290.91,228.704 280.5,231C 275.5,231.667 270.5,231.667 265.5,231C 253.119,228.65 240.952,225.484 229,221.5C 226.399,221.601 224.899,222.935 224.5,225.5C 225.05,228.721 226.05,231.721 227.5,234.5C 226.527,234.013 225.527,233.513 224.5,233C 221.916,229.598 219.25,226.431 216.5,223.5C 215.533,222.194 214.199,221.527 212.5,221.5C 211.905,228.588 210.739,235.588 209,242.5C 208.337,246.035 206.837,249.035 204.5,251.5C 200.854,242.003 200.687,232.336 204,222.5C 206.022,218.997 208.189,215.663 210.5,212.5C 211.303,211.577 211.47,210.577 211,209.5C 206.484,207.578 202.484,204.911 199,201.5C 198.51,200.207 198.343,198.873 198.5,197.5C 200.857,197.337 203.19,197.503 205.5,198C 209.093,199.781 212.76,201.281 216.5,202.5C 215.222,199.496 214.222,196.329 213.5,193C 213.833,192.167 214.167,191.333 214.5,190.5C 216.887,192.607 218.22,195.273 218.5,198.5C 220.199,198.473 221.533,197.806 222.5,196.5C 223.552,196.649 224.552,196.483 225.5,196C 231.415,188.924 238.582,186.757 247,189.5C 250.463,188.759 253.796,187.759 257,186.5C 265.589,187.792 274.089,189.459 282.5,191.5 Z"/></g>
<g><path style="opacity:1" fill="#5fe246" d="M 141.5,201.5 C 148.167,201.5 154.833,201.5 161.5,201.5C 161.67,202.822 161.337,203.989 160.5,205C 154.175,205.5 147.842,205.666 141.5,205.5C 141.5,204.167 141.5,202.833 141.5,201.5 Z"/></g>
<g><path style="opacity:1" fill="#5ee046" d="M 189.5,202.5 C 189.068,203.71 188.401,204.71 187.5,205.5C 183.486,205.666 179.486,205.499 175.5,205C 174.549,204.282 174.383,203.449 175,202.5C 179.933,201.176 184.766,201.176 189.5,202.5 Z"/></g>
<g><path style="opacity:1" fill="#5fe346" d="M 311.5,205.5 C 310.599,204.71 309.932,203.71 309.5,202.5C 326.992,201.503 344.659,201.17 362.5,201.5C 362.67,202.822 362.337,203.989 361.5,205C 344.837,205.5 328.17,205.667 311.5,205.5 Z"/></g>
<g><path style="opacity:1" fill="#9ba0b1" d="M 196.5,204.5 C 190.972,212.889 186.472,221.889 183,231.5C 180.371,242.072 179.871,252.739 181.5,263.5C 179.892,260.79 178.725,257.79 178,254.5C 177.078,235.266 182.578,218.099 194.5,203C 195.816,202.472 196.483,202.972 196.5,204.5 Z"/></g>
<g><path style="opacity:1" fill="#4c5e70" d="M 196.5,204.5 C 199.471,206.657 202.471,208.824 205.5,211C 200.996,214.84 198.162,219.673 197,225.5C 196.214,233.92 196.714,242.253 198.5,250.5C 195.348,249.959 192.848,250.959 191,253.5C 188.191,266.548 192.857,275.881 205,281.5C 205.844,285.229 207.344,288.563 209.5,291.5C 212.931,298.099 217.931,303.265 224.5,307C 223.5,307.667 222.5,307.667 221.5,307C 208.166,300.164 197.166,290.664 188.5,278.5C 185.36,273.885 183.026,268.885 181.5,263.5C 179.871,252.739 180.371,242.072 183,231.5C 186.472,221.889 190.972,212.889 196.5,204.5 Z"/></g>
<g><path style="opacity:1" fill="#2f376e" d="M 303.5,206.5 C 317.009,223.869 321.009,243.203 315.5,264.5C 313.05,264.298 310.717,264.631 308.5,265.5C 309.492,262.221 309.659,258.888 309,255.5C 307.809,252.466 305.642,250.799 302.5,250.5C 303.507,241.856 303.673,233.189 303,224.5C 302.131,219.597 300.298,215.097 297.5,211C 299.488,210.82 301.488,210.986 303.5,211.5C 303.5,209.833 303.5,208.167 303.5,206.5 Z"/></g>
<g><path style="opacity:1" fill="#772a5b" d="M 293.5,211.5 C 302.4,227.458 302.734,243.792 294.5,260.5C 293.998,261.521 293.332,261.688 292.5,261C 289.182,254.609 287.515,247.775 287.5,240.5C 290.061,240.553 292.061,239.553 293.5,237.5C 292.667,237.167 291.833,236.833 291,236.5C 269.315,244.531 249.815,241.031 232.5,226C 231.552,225.517 230.552,225.351 229.5,225.5C 229.46,228.881 229.793,232.214 230.5,235.5C 229.209,235.737 228.209,235.404 227.5,234.5C 226.05,231.721 225.05,228.721 224.5,225.5C 224.899,222.935 226.399,221.601 229,221.5C 240.952,225.484 253.119,228.65 265.5,231C 270.5,231.667 275.5,231.667 280.5,231C 290.91,228.704 295.244,222.204 293.5,211.5 Z"/></g>
<g><path style="opacity:1" fill="#60e746" d="M 180.5,218.5 C 180.443,219.609 180.11,220.609 179.5,221.5C 166.833,221.5 154.167,221.5 141.5,221.5C 141.5,220.167 141.5,218.833 141.5,217.5C 154.677,217.171 167.677,217.505 180.5,218.5 Z"/></g>
<g><path style="opacity:1" fill="#c594a7" d="M 210.5,212.5 C 208.189,215.663 206.022,218.997 204,222.5C 200.687,232.336 200.854,242.003 204.5,251.5C 204.41,254.152 205.076,256.485 206.5,258.5C 205.698,259.885 205.031,259.718 204.5,258C 200.572,247.84 199.072,237.34 200,226.5C 201.088,219.926 204.588,215.259 210.5,212.5 Z"/></g>
<g><path style="opacity:1" fill="#5fe447" d="M 319.5,221.5 C 318.89,220.609 318.557,219.609 318.5,218.5C 323.64,217.512 328.974,217.179 334.5,217.5C 334.5,218.833 334.5,220.167 334.5,221.5C 329.5,221.5 324.5,221.5 319.5,221.5 Z"/></g>
<g><path style="opacity:1" fill="#60e546" d="M 345.5,217.5 C 350.844,217.334 356.177,217.501 361.5,218C 362.833,219 362.833,220 361.5,221C 356.167,221.667 350.833,221.667 345.5,221C 344.316,219.855 344.316,218.688 345.5,217.5 Z"/></g>
<g><path style="opacity:1" fill="#bb6272" d="M 265.5,218.5 C 271.176,218.334 276.843,218.501 282.5,219C 285.003,220.549 285.003,222.216 282.5,224C 277.572,225.418 272.572,225.751 267.5,225C 263.403,223.562 262.736,221.396 265.5,218.5 Z"/></g>
<g><path style="opacity:1" fill="#792c5b" d="M 216.5,223.5 C 214.87,231.062 213.37,238.729 212,246.5C 210.637,250.775 208.803,254.775 206.5,258.5C 205.076,256.485 204.41,254.152 204.5,251.5C 206.837,249.035 208.337,246.035 209,242.5C 210.739,235.588 211.905,228.588 212.5,221.5C 214.199,221.527 215.533,222.194 216.5,223.5 Z"/></g>
<g><path style="opacity:1" fill="#ad8188" d="M 277.5,243.5 C 276.391,244.29 275.058,244.79 273.5,245C 262.645,246.723 252.312,245.223 242.5,240.5C 241.614,241.325 241.281,242.325 241.5,243.5C 234.286,243.106 227.286,241.94 220.5,240C 219.342,243.473 218.176,246.973 217,250.5C 215.951,252.618 214.451,254.284 212.5,255.5C 215.385,247.751 217.385,239.751 218.5,231.5C 223.024,237.427 229.024,240.094 236.5,239.5C 235.357,236.885 234.524,234.218 234,231.5C 246.793,241.484 261.293,245.484 277.5,243.5 Z"/></g>
<g><path style="opacity:1" fill="#5fe546" d="M 175.5,233.5 C 175.167,234.833 174.833,236.167 174.5,237.5C 163.5,237.5 152.5,237.5 141.5,237.5C 141.5,236.167 141.5,234.833 141.5,233.5C 152.833,233.5 164.167,233.5 175.5,233.5 Z"/></g>
<g><path style="opacity:1" fill="#5fe546" d="M 323.5,233.5 C 336.171,233.333 348.838,233.5 361.5,234C 362.337,235.011 362.67,236.178 362.5,237.5C 349.833,237.5 337.167,237.5 324.5,237.5C 324.167,236.167 323.833,234.833 323.5,233.5 Z"/></g>
<g><path style="opacity:1" fill="#5ddf4a" d="M 325.5,249.5 C 328.95,248.756 330.616,250.09 330.5,253.5C 328.833,253.5 327.167,253.5 325.5,253.5C 325.5,252.167 325.5,250.833 325.5,249.5 Z"/></g>
<g><path style="opacity:1" fill="#5edf49" d="M 361.5,253.5 C 355.5,253.5 349.5,253.5 343.5,253.5C 343.5,252.5 343.5,251.5 343.5,250.5C 349.319,249.347 355.319,249.181 361.5,250C 362.791,251.292 362.791,252.458 361.5,253.5 Z"/></g>
<g><path style="opacity:1" fill="#5fe44b" d="M 141.5,249.5 C 148.508,249.334 155.508,249.5 162.5,250C 163.337,251.011 163.67,252.178 163.5,253.5C 156.167,253.5 148.833,253.5 141.5,253.5C 141.5,252.167 141.5,250.833 141.5,249.5 Z"/></g>
<g><path style="opacity:1" fill="#f3bd95" d="M 277.5,243.5 C 279.607,242.532 281.941,242.198 284.5,242.5C 284.649,247.575 285.315,252.575 286.5,257.5C 286.5,262.167 286.5,266.833 286.5,271.5C 282.936,272.423 279.269,272.756 275.5,272.5C 271.5,265.833 267.5,265.833 263.5,272.5C 254.5,272.5 245.5,272.5 236.5,272.5C 232.185,265.716 228.518,266.05 225.5,273.5C 224.596,274.209 224.263,275.209 224.5,276.5C 219.405,276.779 214.405,276.445 209.5,275.5C 209.5,270.5 209.5,265.5 209.5,260.5C 210.263,258.632 211.263,256.965 212.5,255.5C 214.451,254.284 215.951,252.618 217,250.5C 218.176,246.973 219.342,243.473 220.5,240C 227.286,241.94 234.286,243.106 241.5,243.5C 241.281,242.325 241.614,241.325 242.5,240.5C 252.312,245.223 262.645,246.723 273.5,245C 275.058,244.79 276.391,244.29 277.5,243.5 Z"/></g>
<g><path style="opacity:1" fill="#2e1f7d" d="M 226.5,259.5 C 230.54,259.19 233.873,260.524 236.5,263.5C 232.078,263.308 227.578,263.641 223,264.5C 221.743,264.15 221.409,263.483 222,262.5C 223.652,261.601 225.152,260.601 226.5,259.5 Z"/></g>
<g><path style="opacity:1" fill="#ebbf9f" d="M 195.5,253.5 C 197.144,253.286 198.644,253.62 200,254.5C 203.431,261.523 204.264,268.857 202.5,276.5C 195.866,271.562 192.699,264.895 193,256.5C 194.045,255.627 194.878,254.627 195.5,253.5 Z"/></g>
<g><path style="opacity:1" fill="#2a1d7c" d="M 268.5,259.5 C 272.688,259.094 276.021,260.594 278.5,264C 275.691,264.134 272.857,263.968 270,263.5C 260.6,266.362 260.1,265.029 268.5,259.5 Z"/></g>
<g><path style="opacity:1" fill="#e8b796" d="M 302.5,269.5 C 301.417,269.539 300.417,269.873 299.5,270.5C 298.148,269.476 296.815,268.476 295.5,267.5C 297.167,262.833 298.833,258.167 300.5,253.5C 303.925,253.757 305.925,255.59 306.5,259C 305.829,262.86 304.496,266.36 302.5,269.5 Z"/></g>
<g><path style="opacity:1" fill="#5cdb52" d="M 177.5,265.5 C 178.11,266.391 178.443,267.391 178.5,268.5C 166.678,269.495 154.678,269.828 142.5,269.5C 141.209,268.458 141.209,267.292 142.5,266C 154.162,265.5 165.829,265.333 177.5,265.5 Z"/></g>
<g><path style="opacity:1" fill="#5cda51" d="M 355.5,265.5 C 357.527,265.338 359.527,265.505 361.5,266C 362.791,267.292 362.791,268.458 361.5,269.5C 348.833,269.5 336.167,269.5 323.5,269.5C 323.33,268.178 323.663,267.011 324.5,266C 334.828,265.5 345.161,265.334 355.5,265.5 Z"/></g>
<g><path style="opacity:1" fill="#3e475a" d="M 178.5,268.5 C 180.216,272.26 182.216,275.927 184.5,279.5C 186.279,281.546 187.946,283.713 189.5,286C 175.348,290.986 165.681,300.486 160.5,314.5C 156.451,300.683 152.618,286.683 149,272.5C 147.009,271.008 144.842,270.008 142.5,269.5C 154.678,269.828 166.678,269.495 178.5,268.5 Z"/></g>
<g><path style="opacity:1" fill="#a28891" d="M 295.5,267.5 C 296.815,268.476 298.148,269.476 299.5,270.5C 300.417,269.873 301.417,269.539 302.5,269.5C 301.67,272.822 299.67,275.156 296.5,276.5C 295.516,273.572 295.183,270.572 295.5,267.5 Z"/></g>
<g><path style="opacity:1" fill="#1a1d81" d="M 236.5,272.5 C 236.579,275.271 236.079,277.937 235,280.5C 228.263,283.633 225.096,281.299 225.5,273.5C 228.518,266.05 232.185,265.716 236.5,272.5 Z"/></g>
<g><path style="opacity:1" fill="#c7d4e7" d="M 231.5,271.5 C 232.586,271.62 233.253,272.287 233.5,273.5C 232.696,275.957 231.696,275.957 230.5,273.5C 230.863,272.817 231.196,272.15 231.5,271.5 Z"/></g>
<g><path style="opacity:1" fill="#252182" d="M 275.5,272.5 C 276.017,277.483 274.017,280.816 269.5,282.5C 264.983,280.816 262.983,277.483 263.5,272.5C 267.5,265.833 271.5,265.833 275.5,272.5 Z"/></g>
<g><path style="opacity:1" fill="#bac6e0" d="M 267.5,271.5 C 269.176,272.183 269.843,273.517 269.5,275.5C 268.5,275.5 267.5,275.5 266.5,275.5C 266.433,274.041 266.766,272.708 267.5,271.5 Z"/></g>
<g><path style="opacity:1" fill="#3e4659" d="M 325.5,249.5 C 325.5,250.833 325.5,252.167 325.5,253.5C 327.167,253.5 328.833,253.5 330.5,253.5C 334.5,253.5 338.5,253.5 342.5,253.5C 342.263,252.209 342.596,251.209 343.5,250.5C 343.5,251.5 343.5,252.5 343.5,253.5C 349.5,253.5 355.5,253.5 361.5,253.5C 360.432,254.434 359.099,254.768 357.5,254.5C 357.576,258.384 356.91,262.05 355.5,265.5C 345.161,265.334 334.828,265.5 324.5,266C 323.663,267.011 323.33,268.178 323.5,269.5C 336.167,269.5 348.833,269.5 361.5,269.5C 358.51,269.959 355.677,270.959 353,272.5C 349.161,287.19 345.328,301.857 341.5,316.5C 336.236,301.236 325.903,290.903 310.5,285.5C 312.925,282.411 314.925,279.078 316.5,275.5C 321.508,267.476 324.508,258.809 325.5,249.5 Z"/></g>
<g><path style="opacity:1" fill="#e5c19e" d="M 286.5,271.5 C 285.276,281.289 280.942,289.289 273.5,295.5C 267.158,295.666 260.825,295.5 254.5,295C 255.696,294.346 255.696,293.846 254.5,293.5C 253.893,293.624 253.56,293.957 253.5,294.5C 249.486,294.666 245.486,294.499 241.5,294C 240.646,292.978 239.646,292.145 238.5,291.5C 237.537,291.97 237.537,292.637 238.5,293.5C 231.679,294.655 224.679,294.821 217.5,294C 213.328,288.488 210.661,282.321 209.5,275.5C 214.405,276.445 219.405,276.779 224.5,276.5C 224.263,275.209 224.596,274.209 225.5,273.5C 225.096,281.299 228.263,283.633 235,280.5C 236.079,277.937 236.579,275.271 236.5,272.5C 245.5,272.5 254.5,272.5 263.5,272.5C 262.983,277.483 264.983,280.816 269.5,282.5C 274.017,280.816 276.017,277.483 275.5,272.5C 279.269,272.756 282.936,272.423 286.5,271.5 Z"/></g>
<g><path style="opacity:1" fill="#304b80" d="M 315.5,264.5 C 313.208,271.086 309.874,277.086 305.5,282.5C 305.624,283.107 305.957,283.44 306.5,283.5C 297.836,294.368 287.17,302.201 274.5,307C 283.278,302.063 289.278,294.897 292.5,285.5C 293.234,284.122 293.901,282.622 294.5,281C 301.792,278.208 306.458,273.042 308.5,265.5C 310.717,264.631 313.05,264.298 315.5,264.5 Z"/></g>
<g><path style="opacity:1" fill="#dac3aa" d="M 209.5,260.5 C 209.5,265.5 209.5,270.5 209.5,275.5C 210.661,282.321 213.328,288.488 217.5,294C 224.679,294.821 231.679,294.655 238.5,293.5C 240.552,295.922 243.218,296.922 246.5,296.5C 249.205,296.684 251.538,296.017 253.5,294.5C 253.56,293.957 253.893,293.624 254.5,293.5C 255.696,293.846 255.696,294.346 254.5,295C 260.825,295.5 267.158,295.666 273.5,295.5C 268.423,301.044 262.089,304.544 254.5,306C 247.574,307.339 240.574,307.839 233.5,307.5C 224.424,304.091 217.091,298.424 211.5,290.5C 208.504,284.008 206.837,277.174 206.5,270C 206.004,266.203 207.004,263.036 209.5,260.5 Z"/></g>
<g><path style="opacity:1" fill="#496b81" d="M 338.5,329.5 C 336.017,334.701 335.85,340.035 338,345.5C 340.253,358.058 337.586,369.391 330,379.5C 329.536,378.906 329.369,378.239 329.5,377.5C 330.82,359.489 331.986,341.489 333,323.5C 330.829,318.156 326.996,314.823 321.5,313.5C 306.339,312.669 291.005,312.169 275.5,312C 287.392,306.28 298.058,298.78 307.5,289.5C 327.425,295.331 337.758,308.665 338.5,329.5 Z"/></g>
<g><path style="opacity:1" fill="#9d919a" d="M 286.5,257.5 C 287.557,260.587 289.391,263.254 292,265.5C 292.732,271.614 292.232,277.614 290.5,283.5C 282.324,301.443 268.158,310.443 248,310.5C 242.773,310.813 237.939,309.813 233.5,307.5C 240.574,307.839 247.574,307.339 254.5,306C 262.089,304.544 268.423,301.044 273.5,295.5C 280.942,289.289 285.276,281.289 286.5,271.5C 286.5,266.833 286.5,262.167 286.5,257.5 Z"/></g>
<g><path style="opacity:1" fill="#172e8a" d="M 313.5,273.5 C 313.821,275.048 314.821,275.715 316.5,275.5C 314.925,279.078 312.925,282.411 310.5,285.5C 325.903,290.903 336.236,301.236 341.5,316.5C 341.5,317.167 341.5,317.833 341.5,318.5C 339.783,321.845 339.116,325.511 339.5,329.5C 339.167,329.5 338.833,329.5 338.5,329.5C 337.758,308.665 327.425,295.331 307.5,289.5C 298.058,298.78 287.392,306.28 275.5,312C 291.005,312.169 306.339,312.669 321.5,313.5C 274.5,312.21 227.5,312.21 180.5,313.5C 194.327,312.669 208.327,312.169 222.5,312C 211.865,306.531 202.199,299.698 193.5,291.5C 193.53,290.503 193.03,289.836 192,289.5C 176.178,294.155 166.345,304.488 162.5,320.5C 161.691,318.972 161.024,317.306 160.5,315.5C 160.5,315.167 160.5,314.833 160.5,314.5C 165.681,300.486 175.348,290.986 189.5,286C 187.946,283.713 186.279,281.546 184.5,279.5C 186.099,279.768 187.432,279.434 188.5,278.5C 197.166,290.664 208.166,300.164 221.5,307C 222.5,307.667 223.5,307.667 224.5,307C 217.931,303.265 212.931,298.099 209.5,291.5C 209.842,290.662 210.508,290.328 211.5,290.5C 217.091,298.424 224.424,304.091 233.5,307.5C 237.939,309.813 242.773,310.813 248,310.5C 268.158,310.443 282.324,301.443 290.5,283.5C 290.5,284.833 291.167,285.5 292.5,285.5C 289.278,294.897 283.278,302.063 274.5,307C 287.17,302.201 297.836,294.368 306.5,283.5C 308.866,280.143 311.199,276.81 313.5,273.5 Z"/></g>
<g><path style="opacity:1" fill="#3e3f8d" d="M 253.5,294.5 C 251.538,296.017 249.205,296.684 246.5,296.5C 243.218,296.922 240.552,295.922 238.5,293.5C 237.537,292.637 237.537,291.97 238.5,291.5C 239.646,292.145 240.646,292.978 241.5,294C 245.486,294.499 249.486,294.666 253.5,294.5 Z"/></g>
<g><path style="opacity:1" fill="#4a7589" d="M 193.5,291.5 C 202.199,299.698 211.865,306.531 222.5,312C 208.327,312.169 194.327,312.669 180.5,313.5C 175.013,314.813 171.18,318.147 169,323.5C 169.298,332.823 169.798,342.156 170.5,351.5C 168.669,345.197 166.669,338.864 164.5,332.5C 165.184,317.296 171.517,305.129 183.5,296C 186.533,293.792 189.866,292.292 193.5,291.5 Z"/></g>
<g><path style="opacity:0.999" fill="#150e78" d="M 321.5,313.5 C 326.996,314.823 330.829,318.156 333,323.5C 331.986,341.489 330.82,359.489 329.5,377.5C 328.719,384.006 328.052,390.673 327.5,397.5C 327.833,398.5 328.167,399.5 328.5,400.5C 342.761,390.968 348.594,377.635 346,360.5C 343.766,350.162 341.599,339.829 339.5,329.5C 339.116,325.511 339.783,321.845 341.5,318.5C 341.99,321.655 342.656,324.655 343.5,327.5C 345.343,338.551 347.51,349.551 350,360.5C 353.01,378.973 346.843,393.473 331.5,404C 333.325,405.466 333.825,407.299 333,409.5C 332.184,413.135 330.35,416.135 327.5,418.5C 341.488,419.333 355.488,419.833 369.5,420C 371.058,420.21 372.391,420.71 373.5,421.5C 372.737,422.268 371.737,422.768 370.5,423C 289.5,423.667 208.5,423.667 127.5,423C 125.381,422.658 125.047,421.825 126.5,420.5C 142.476,419.728 158.476,419.228 174.5,419C 171.822,415.497 169.822,411.664 168.5,407.5C 168.68,406.446 169.013,405.446 169.5,404.5C 154.95,394.732 148.45,381.065 150,363.5C 152.315,351.421 154.815,339.421 157.5,327.5C 157.755,323.2 158.755,319.2 160.5,315.5C 161.024,317.306 161.691,318.972 162.5,320.5C 159.506,336.131 156.839,351.797 154.5,367.5C 153.808,376.758 156.475,384.758 162.5,391.5C 162.859,393.371 163.859,394.871 165.5,396C 168.029,398.029 170.696,399.862 173.5,401.5C 174.812,396.682 174.812,392.015 173.5,387.5C 173.101,375.444 172.101,363.444 170.5,351.5C 169.798,342.156 169.298,332.823 169,323.5C 171.18,318.147 175.013,314.813 180.5,313.5C 227.5,312.21 274.5,312.21 321.5,313.5 Z"/></g>
<g><path style="opacity:1" fill="#ebeef5" d="M 324.5,318.5 C 324.5,318.833 324.5,319.167 324.5,319.5C 277.832,319.333 231.165,319.5 184.5,320C 178.683,322.132 175.683,326.299 175.5,332.5C 178.054,357.485 180.387,382.485 182.5,407.5C 181.542,407.047 180.708,406.381 180,405.5C 177.354,379.684 174.854,353.851 172.5,328C 172.833,323.667 174.833,320.333 178.5,318C 227.237,317.172 275.904,317.339 324.5,318.5 Z"/></g>
<g><path style="opacity:1" fill="#c6d3e3" d="M 324.5,319.5 C 318.152,355.684 298.152,381.184 264.5,396C 250.805,401.627 236.805,405.794 222.5,408.5C 208.99,408.829 195.656,408.496 182.5,407.5C 180.387,382.485 178.054,357.485 175.5,332.5C 175.683,326.299 178.683,322.132 184.5,320C 231.165,319.5 277.832,319.333 324.5,319.5 Z"/></g>
<g><path style="opacity:1" fill="#8a92c1" d="M 324.5,318.5 C 327.59,320.843 329.256,324.01 329.5,328C 326.892,353.127 324.725,378.293 323,403.5C 322.215,405.286 321.049,406.786 319.5,408C 287.168,408.5 254.835,408.667 222.5,408.5C 236.805,405.794 250.805,401.627 264.5,396C 298.152,381.184 318.152,355.684 324.5,319.5C 324.5,319.167 324.5,318.833 324.5,318.5 Z"/></g>
<g><path style="opacity:1" fill="#9eacba" d="M 193.5,291.5 C 189.866,292.292 186.533,293.792 183.5,296C 171.517,305.129 165.184,317.296 164.5,332.5C 160.086,347.765 157.919,363.432 158,379.5C 158.844,383.229 160.344,386.563 162.5,389.5C 162.5,390.167 162.5,390.833 162.5,391.5C 156.475,384.758 153.808,376.758 154.5,367.5C 156.839,351.797 159.506,336.131 162.5,320.5C 166.345,304.488 176.178,294.155 192,289.5C 193.03,289.836 193.53,290.503 193.5,291.5 Z"/></g>
<g><path style="opacity:1" fill="#363e6d" d="M 338.5,329.5 C 338.833,329.5 339.167,329.5 339.5,329.5C 341.599,339.829 343.766,350.162 346,360.5C 348.594,377.635 342.761,390.968 328.5,400.5C 328.167,399.5 327.833,398.5 327.5,397.5C 328.052,390.673 328.719,384.006 329.5,377.5C 329.369,378.239 329.536,378.906 330,379.5C 337.586,369.391 340.253,358.058 338,345.5C 335.85,340.035 336.017,334.701 338.5,329.5 Z"/></g>
<g><path style="opacity:1" fill="#4d596a" d="M 164.5,332.5 C 166.669,338.864 168.669,345.197 170.5,351.5C 172.101,363.444 173.101,375.444 173.5,387.5C 173.799,389.604 173.466,391.604 172.5,393.5C 169.029,392.347 165.696,391.014 162.5,389.5C 160.344,386.563 158.844,383.229 158,379.5C 157.919,363.432 160.086,347.765 164.5,332.5 Z"/></g>
<g><path style="opacity:1" fill="#1d157c" d="M 244.5,343.5 C 263.813,342.314 272.98,351.314 272,370.5C 270.487,374.681 268.154,378.348 265,381.5C 264.883,384.911 263.383,387.411 260.5,389C 256.236,389.215 252.07,389.382 248,389.5C 245.205,388.815 242.372,388.315 239.5,388C 236.226,381.953 233.059,375.787 230,369.5C 228.862,357.439 233.695,348.772 244.5,343.5 Z"/></g>
<g><path style="opacity:1" fill="#f7f7fa" d="M 246.5,346.5 C 261.494,346.329 268.994,353.662 269,368.5C 267.834,373.499 265.167,377.499 261,380.5C 260.749,382.433 260.249,384.266 259.5,386C 257.193,386.271 256.026,385.105 256,382.5C 255.517,383.448 255.351,384.448 255.5,385.5C 254.167,385.5 252.833,385.5 251.5,385.5C 250.833,381.5 250.167,381.5 249.5,385.5C 248.5,385.5 247.5,385.5 246.5,385.5C 245.833,380.167 245.167,380.167 244.5,385.5C 243.178,385.67 242.011,385.337 241,384.5C 240.332,380.151 238.332,376.484 235,373.5C 230.667,360.848 234.5,351.848 246.5,346.5 Z"/></g>
<g><path style="opacity:1" fill="#0c0675" d="M 255.5,361.5 C 262.628,361.706 264.294,364.873 260.5,371C 254.498,371.993 252.332,369.493 254,363.5C 254.717,362.956 255.217,362.289 255.5,361.5 Z"/></g>
<g><path style="opacity:1" fill="#150c78" d="M 241.5,361.5 C 249.41,361.845 251.077,365.012 246.5,371C 240.498,371.993 238.332,369.493 240,363.5C 240.717,362.956 241.217,362.289 241.5,361.5 Z"/></g>
<g><path style="opacity:1" fill="#373f6e" d="M 173.5,387.5 C 174.812,392.015 174.812,396.682 173.5,401.5C 170.696,399.862 168.029,398.029 165.5,396C 163.859,394.871 162.859,393.371 162.5,391.5C 162.5,390.833 162.5,390.167 162.5,389.5C 165.696,391.014 169.029,392.347 172.5,393.5C 173.466,391.604 173.799,389.604 173.5,387.5 Z"/></g>
<g><path style="opacity:1" fill="#c3d0e1" d="M 183.5,412.5 C 210.33,413.332 237.33,413.832 264.5,414C 260.525,416.146 256.525,417.98 252.5,419.5C 229.498,419.667 206.498,419.5 183.5,419C 179.028,417.028 175.695,413.862 173.5,409.5C 174.723,408.386 176.056,408.219 177.5,409C 179.063,410.947 181.063,412.114 183.5,412.5 Z"/></g>
<g><path style="opacity:1" fill="#8289bc" d="M 252.5,419.5 C 256.525,417.98 260.525,416.146 264.5,414C 237.33,413.832 210.33,413.332 183.5,412.5C 229.168,412.667 274.835,412.5 320.5,412C 330.448,407.316 331.115,408.982 322.5,417C 320.913,417.862 319.246,418.529 317.5,419C 295.836,419.5 274.169,419.667 252.5,419.5 Z"/></g>
<g><path style="opacity:0.996" fill="#b0b0d3" d="M 126.5,420.5 C 125.047,421.825 125.381,422.658 127.5,423C 208.5,423.667 289.5,423.667 370.5,423C 371.737,422.768 372.737,422.268 373.5,421.5C 378.179,421.334 382.845,421.501 387.5,422C 389.973,423.925 389.973,425.758 387.5,427.5C 360.107,432.763 332.441,435.597 304.5,436C 267.5,436.667 230.5,436.667 193.5,436C 166.289,435.371 139.289,432.705 112.5,428C 109.301,426.321 108.967,424.321 111.5,422C 116.549,421.728 121.549,421.228 126.5,420.5 Z"/></g>
</svg>
