<?xml version="1.0" standalone="no"?>
<!DOCTYPE svg PUBLIC "-//W3C//DTD SVG 20010904//EN"
 "http://www.w3.org/TR/2001/REC-SVG-20010904/DTD/svg10.dtd">
<svg version="1.0" xmlns="http://www.w3.org/2000/svg"
 width="500.000000pt" height="500.000000pt" viewBox="0 0 500.000000 500.000000"
 preserveAspectRatio="xMidYMid meet">

<g transform="translate(0.000000,500.000000) scale(0.100000,-0.100000)"
fill="#000000" stroke="none">
<path d="M2681 4272 c33 -22 51 -40 73 -74 10 -16 27 -28 38 -28 19 0 19 1 -1
29 -21 30 -106 91 -125 91 -6 0 1 -8 15 -18z"/>
<path d="M1724 4180 c-67 -34 -158 -99 -151 -107 3 -2 29 13 59 35 29 22 80
54 113 71 33 17 55 30 49 31 -6 0 -37 -14 -70 -30z"/>
<path d="M2180 4069 c-239 -18 -605 -95 -718 -152 -38 -19 -53 -35 -84 -92
-75 -139 -121 -290 -153 -510 -12 -88 -22 -161 -20 -163 2 -2 12 2 23 9 16 10
20 28 26 95 19 256 133 602 212 647 66 37 384 106 589 127 194 20 625 8 710
-20 58 -19 65 -22 65 -32 0 -5 9 -18 20 -30 11 -12 20 -28 20 -36 0 -8 10 -53
22 -101 14 -58 21 -110 19 -158 -2 -47 1 -73 8 -73 7 0 11 -24 11 -60 0 -33
-4 -60 -10 -60 -5 0 -10 -8 -10 -18 0 -38 -49 -75 -105 -78 -91 -4 -92 -5 -69
-14 12 -5 81 -12 153 -16 119 -6 131 -5 137 11 16 40 -40 378 -91 554 -19 68
-35 135 -35 151 0 27 -1 28 -32 19 -20 -5 -84 -5 -167 1 -158 11 -357 11 -521
-1z"/>
<path d="M3010 4036 c0 -3 9 -28 20 -55 48 -122 97 -375 106 -541 6 -122 -7
-160 -65 -194 -33 -19 -55 -20 -475 -21 -535 -1 -737 -20 -1123 -105 -246 -54
-263 -65 -263 -155 0 -136 48 -420 105 -620 30 -108 92 -285 100 -285 1 0 38
9 81 19 222 55 527 90 837 98 130 3 237 7 237 7 0 10 -162 632 -166 635 -2 2
-4 -5 -4 -17 0 -11 -5 -24 -11 -28 -6 -3 -9 -17 -6 -30 2 -13 0 -24 -4 -24 -5
0 -9 -10 -9 -22 0 -13 -3 -34 -7 -46 -4 -18 -8 -20 -14 -10 -5 8 -9 -14 -9
-54 0 -39 -4 -68 -10 -68 -5 0 -10 -11 -10 -25 0 -14 -4 -25 -9 -25 -5 0 -12
-20 -15 -45 -4 -25 -11 -45 -15 -45 -5 0 -12 -16 -15 -35 -5 -25 -12 -35 -25
-35 -10 0 -28 -13 -41 -30 -13 -16 -31 -30 -41 -30 -11 0 -19 -4 -19 -8 0 -10
-73 -30 -130 -36 -25 -2 -67 -9 -95 -16 -27 -6 -97 -18 -155 -26 -58 -9 -127
-19 -155 -24 -27 -5 -73 -9 -101 -9 l-51 -1 -32 60 c-17 34 -33 68 -35 78 -1
9 -6 24 -9 32 -69 161 -144 593 -118 672 15 46 47 63 203 102 266 69 474 96
763 101 180 4 230 1 275 -12 30 -8 63 -15 73 -15 9 0 17 -3 17 -9 0 -5 7 -9
16 -9 8 0 13 -4 10 -9 -6 -9 22 -37 33 -35 7 2 -10 8 200 -71 95 -36 177 -65
181 -65 4 0 9 51 12 113 5 124 18 161 71 201 56 41 257 19 515 -58 85 -25 112
-30 112 -20 0 8 -4 14 -10 14 -5 0 -10 8 -10 18 0 10 -9 24 -20 32 -11 8 -16
17 -11 20 10 6 -10 100 -20 100 -4 0 -10 18 -14 40 -4 22 -11 40 -16 40 -5 0
-9 7 -9 15 0 8 -4 15 -10 15 -5 0 -10 6 -10 14 0 24 -139 156 -157 149 -12 -5
-15 -2 -10 10 5 12 1 17 -13 17 -11 0 -20 7 -20 15 0 8 -6 15 -14 15 -8 0 -16
7 -20 15 -3 8 -12 12 -21 9 -15 -6 -18 3 -16 36 0 10 -1 11 -5 3 -3 -7 -13
-13 -21 -13 -11 0 -14 7 -9 28 5 19 4 23 -3 12 -8 -12 -13 -11 -30 9 -25 29
-26 44 -6 61 13 11 13 15 3 21 -23 15 56 10 124 -7 96 -24 217 -85 277 -140
45 -40 50 -43 31 -16 -81 110 -301 224 -552 287 -57 14 -111 28 -120 31 -10 3
-18 3 -18 0z"/>
<path d="M2648 3353 c7 -3 16 -2 19 1 4 3 -2 6 -13 5 -11 0 -14 -3 -6 -6z"/>
<path d="M3980 3244 c21 -54 46 -130 56 -169 16 -63 44 -119 44 -88 0 38 -107
324 -130 347 -5 5 8 -36 30 -90z"/>
<path d="M3170 3180 c-12 -8 -14 -33 -12 -142 2 -73 7 -136 10 -139 4 -3 90
-37 192 -74 102 -37 206 -76 231 -85 64 -25 74 -16 71 64 -2 40 1 66 8 66 5 0
10 10 10 23 0 12 7 33 16 46 15 21 22 23 76 18 71 -6 188 -59 246 -111 61 -56
72 -87 72 -210 0 -82 3 -106 13 -106 10 0 16 25 20 95 l6 94 -35 63 c-45 79
-72 108 -155 163 -120 80 -277 139 -529 199 -180 43 -221 49 -240 36z"/>
<path d="M997 2960 c-58 -32 -129 -74 -156 -94 -116 -85 -173 -193 -152 -286
7 -35 7 -35 15 20 11 79 37 115 145 203 25 20 182 111 223 129 20 9 27 21 31
48 2 19 4 36 3 37 -1 1 -50 -24 -109 -57z"/>
<path d="M4042 2253 c-5 -10 -15 -36 -22 -58 -7 -22 -28 -78 -47 -124 -31 -77
-36 -111 -16 -111 9 0 17 19 67 155 41 109 51 155 37 155 -6 0 -14 -8 -19 -17z"/>
<path d="M1220 2216 c0 -8 4 -17 9 -20 5 -4 7 3 4 14 -6 23 -13 26 -13 6z"/>
<path d="M1246 2133 c4 -28 2 -43 -5 -43 -6 0 -11 -8 -11 -17 0 -17 -40 -43
-67 -43 -7 0 -13 -4 -13 -10 0 -5 -11 -10 -25 -10 -14 0 -25 -4 -25 -10 0 -5
-7 -10 -16 -10 -8 0 -22 -7 -30 -15 -8 -8 -21 -12 -29 -9 -9 4 -15 0 -15 -9 0
-9 -9 -18 -19 -22 -16 -5 -36 -53 -26 -64 2 -1 19 8 37 22 44 33 137 79 218
107 36 13 68 26 72 29 3 3 -7 38 -23 76 -27 65 -29 67 -23 28z"/>
<path d="M2375 2063 c-137 -5 -375 -23 -500 -39 -113 -15 -370 -59 -407 -70
-13 -4 -4 -26 54 -132 221 -396 458 -651 750 -802 147 -77 171 -73 259 36 84
104 116 155 176 281 l55 115 -46 166 c-25 92 -57 214 -71 272 -14 58 -31 122
-36 143 l-10 37 -72 -2 c-40 -1 -108 -3 -152 -5z m10 -873 c-16 -7 -11 -9 23
-11 23 -1 47 -3 52 -4 6 -1 16 -3 23 -4 8 0 19 -12 25 -26 23 -50 -34 -135
-91 -135 -64 0 -207 109 -193 147 3 8 6 18 6 23 0 11 22 15 105 17 47 1 63 -1
50 -7z"/>
<path d="M1260 1891 c-108 -40 -192 -85 -234 -124 -30 -29 -36 -41 -36 -75 0
-23 5 -52 11 -66 16 -35 229 -250 315 -318 215 -171 472 -287 732 -333 106
-18 125 -18 92 -1 -14 7 -67 21 -118 30 -234 42 -518 171 -709 322 -109 87
-273 270 -273 306 0 4 11 8 25 8 14 0 25 -4 25 -10 0 -5 6 -10 13 -10 7 0 20
-8 29 -17 26 -28 46 -43 58 -43 5 0 10 -7 10 -15 0 -8 7 -15 15 -15 8 0 15 -9
15 -21 0 -11 5 -17 10 -14 6 3 10 2 10 -4 0 -15 60 -71 76 -71 17 0 55 -36 46
-44 -3 -3 2 -6 11 -6 9 0 27 -11 41 -25 14 -14 34 -25 45 -25 11 0 21 -5 23
-11 2 -5 22 -13 46 -16 23 -3 42 -10 42 -14 0 -5 11 -9 24 -9 13 0 26 -4 28
-9 2 -5 38 -11 80 -13 89 -3 90 -14 -10 103 -89 105 -223 309 -294 446 -33 65
-63 119 -67 120 -3 1 -40 -11 -81 -26z"/>
<path d="M3144 1548 c-23 -24 -75 -89 -117 -144 -77 -103 -118 -144 -144 -144
-8 0 -25 11 -38 24 l-23 23 -41 -78 c-23 -43 -41 -81 -41 -84 0 -4 32 -4 70
-2 64 5 70 4 70 -13 0 -29 -39 -53 -148 -89 -68 -23 -110 -43 -128 -62 l-26
-27 78 17 c273 62 480 148 689 288 127 84 131 88 116 107 -19 22 -24 21 -87
-19 -31 -20 -69 -38 -85 -42 -26 -5 -29 -3 -29 21 0 14 4 26 9 26 5 0 13 10
16 23 12 40 30 77 37 77 4 0 6 15 4 32 -3 23 -16 44 -46 70 -57 51 -85 50
-136 -4z"/>
</g>
</svg>
