<?xml version="1.0" encoding="UTF-8"?>
<!DOCTYPE svg PUBLIC "-//W3C//DTD SVG 1.1//EN" "http://www.w3.org/Graphics/SVG/1.1/DTD/svg11.dtd">
<svg xmlns="http://www.w3.org/2000/svg" version="1.1" width="700px" height="700px" style="shape-rendering:geometricPrecision; text-rendering:geometricPrecision; image-rendering:optimizeQuality; fill-rule:evenodd; clip-rule:evenodd" xmlns:xlink="http://www.w3.org/1999/xlink">
<g><path style="opacity:1" fill="#6d6f8e" d="M 273.5,67.5 C 273.658,70.9023 273.324,74.2356 272.5,77.5C 271.016,74.2589 270.516,70.9256 271,67.5C 269.598,65.0266 268.098,65.0266 266.5,67.5C 265.614,66.675 265.281,65.675 265.5,64.5C 264.5,64.5 263.5,64.5 262.5,64.5C 262.689,69.3006 263.356,73.9673 264.5,78.5C 259.637,78.8195 254.97,78.4861 250.5,77.5C 254.833,77.5 259.167,77.5 263.5,77.5C 264.167,73.5 262.5,71.8333 258.5,72.5C 258.833,71.8333 259.167,71.1667 259.5,70.5C 261.521,66.2495 260.187,63.9162 255.5,63.5C 257.162,62.0154 258.995,60.6821 261,59.5C 262.567,60.8561 264.4,61.5228 266.5,61.5C 266.439,58.9505 265.106,57.4505 262.5,57C 257.892,55.2877 253.225,55.121 248.5,56.5C 256.883,51.8209 264.383,53.1542 271,60.5C 272.411,62.6504 273.245,64.9837 273.5,67.5 Z"/></g>
<g><path style="opacity:1" fill="#61648a" d="M 255.5,63.5 C 252.777,65.2713 252.111,67.6046 253.5,70.5C 253.167,71.1667 252.833,71.8333 252.5,72.5C 251.504,72.4142 250.671,72.7476 250,73.5C 249.235,75.0657 249.402,76.3991 250.5,77.5C 254.97,78.4861 259.637,78.8195 264.5,78.5C 263.356,73.9673 262.689,69.3006 262.5,64.5C 263.5,64.5 264.5,64.5 265.5,64.5C 265.281,65.675 265.614,66.675 266.5,67.5C 268.098,65.0266 269.598,65.0266 271,67.5C 270.516,70.9256 271.016,74.2589 272.5,77.5C 267.754,86.3679 260.42,89.5345 250.5,87C 241.145,81.7882 238.145,73.9548 241.5,63.5C 242.833,60.1667 245.167,57.8333 248.5,56.5C 253.225,55.121 257.892,55.2877 262.5,57C 265.106,57.4505 266.439,58.9505 266.5,61.5C 264.4,61.5228 262.567,60.8561 261,59.5C 258.995,60.6821 257.162,62.0154 255.5,63.5 Z"/></g>
<g><path style="opacity:1" fill="#d25673" d="M 293.5,79.5 C 308.167,79.5 322.833,79.5 337.5,79.5C 337.5,86.8333 337.5,94.1667 337.5,101.5C 329.111,101.197 320.778,101.53 312.5,102.5C 311.808,101.975 311.308,101.308 311,100.5C 309.991,102.025 309.491,103.692 309.5,105.5C 306.916,105.431 304.916,104.265 303.5,102C 300.183,101.502 296.85,101.335 293.5,101.5C 293.5,94.1667 293.5,86.8333 293.5,79.5 Z M 324.5,88.5 C 327.861,89.2032 328.194,90.5365 325.5,92.5C 324.571,91.3112 324.238,89.9778 324.5,88.5 Z M 316.5,89.5 C 316.196,91.7957 315.196,92.129 313.5,90.5C 314.221,88.6182 315.221,88.2848 316.5,89.5 Z"/></g>
<g><path style="opacity:1" fill="#f6e5e8" d="M 303.5,88.5 C 306.166,88.0658 307.333,89.0658 307,91.5C 303.403,93.0661 302.237,92.0661 303.5,88.5 Z"/></g>
<g><path style="opacity:0.008" fill="#f4dae0" d="M 316.5,89.5 C 317.404,90.209 317.737,91.209 317.5,92.5C 315.517,92.8432 314.183,92.1765 313.5,90.5C 315.196,92.129 316.196,91.7957 316.5,89.5 Z"/></g>
<g><path style="opacity:0.41" fill="#d28b9d" d="M 292.5,79.5 C 295.287,78.5233 298.287,78.19 301.5,78.5C 313.833,78.5 326.167,78.5 338.5,78.5C 338.5,86.5 338.5,94.5 338.5,102.5C 330.826,102.334 323.159,102.5 315.5,103C 313.593,104.122 311.593,104.955 309.5,105.5C 309.491,103.692 309.991,102.025 311,100.5C 311.308,101.308 311.808,101.975 312.5,102.5C 320.778,101.53 329.111,101.197 337.5,101.5C 337.5,94.1667 337.5,86.8333 337.5,79.5C 322.833,79.5 308.167,79.5 293.5,79.5C 293.167,79.5 292.833,79.5 292.5,79.5 Z"/></g>
<g><path style="opacity:1" fill="#cd718a" d="M 292.5,79.5 C 292.833,79.5 293.167,79.5 293.5,79.5C 293.5,86.8333 293.5,94.1667 293.5,101.5C 296.85,101.335 300.183,101.502 303.5,102C 304.916,104.265 306.916,105.431 309.5,105.5C 307.14,107.853 304.473,109.853 301.5,111.5C 300.448,111.649 299.448,111.483 298.5,111C 299.961,108.579 301.294,106.079 302.5,103.5C 299.572,102.516 296.572,102.183 293.5,102.5C 292.508,95.0182 292.175,87.3516 292.5,79.5 Z"/></g>
<g><path style="opacity:1" fill="#d1e6ee" d="M 241.5,63.5 C 238.145,73.9548 241.145,81.7882 250.5,87C 260.42,89.5345 267.754,86.3679 272.5,77.5C 273.324,74.2356 273.658,70.9023 273.5,67.5C 274.404,68.209 274.737,69.209 274.5,70.5C 283.173,70.3336 291.84,70.5002 300.5,71C 301.435,73.3806 301.768,75.8806 301.5,78.5C 298.287,78.19 295.287,78.5233 292.5,79.5C 292.175,87.3516 292.508,95.0182 293.5,102.5C 294.398,103.158 295.398,103.824 296.5,104.5C 294.883,104.669 293.216,105.003 291.5,105.5C 292.689,106.429 294.022,106.762 295.5,106.5C 295.67,107.822 295.337,108.989 294.5,110C 297.079,111.729 297.079,113.562 294.5,115.5C 296.624,116.149 298.624,116.983 300.5,118C 299.68,127.756 299.18,137.59 299,147.5C 298.667,147.833 298.333,148.167 298,148.5C 297.374,146.287 297.541,144.12 298.5,142C 298.387,140.72 297.72,139.887 296.5,139.5C 295.711,142.646 295.045,145.813 294.5,149C 294.8,151.024 295.633,151.524 297,150.5C 297.793,154.423 297.626,158.256 296.5,162C 270.359,162.626 244.025,162.626 217.5,162C 216.058,161.623 215.058,160.79 214.5,159.5C 215.827,155.217 216.493,150.551 216.5,145.5C 216.499,140.654 216.166,135.988 215.5,131.5C 202.167,131.5 188.833,131.5 175.5,131.5C 185.987,130.506 196.654,130.172 207.5,130.5C 207.333,110.831 207.5,91.1638 208,71.5C 218.418,70.5134 228.918,70.1801 239.5,70.5C 239.41,67.8478 240.076,65.5145 241.5,63.5 Z M 233.5,106.5 C 233.5,108.5 233.5,110.5 233.5,112.5C 226.208,115.567 223.208,113.234 224.5,105.5C 227.609,105.264 230.609,105.597 233.5,106.5 Z M 233.5,120.5 C 233.5,122.833 233.5,125.167 233.5,127.5C 225.797,130.582 223.13,128.249 225.5,120.5C 228.199,119.271 230.865,119.271 233.5,120.5 Z"/></g>
<g><path style="opacity:1" fill="#919db4" d="M 286.5,104.5 C 287.479,107.625 287.813,110.958 287.5,114.5C 269.326,114.83 251.326,114.497 233.5,113.5C 233.833,113.5 234.167,113.5 234.5,113.5C 251.833,113.5 269.167,113.5 286.5,113.5C 286.5,110.833 286.5,108.167 286.5,105.5C 286.5,105.167 286.5,104.833 286.5,104.5 Z"/></g>
<g><path style="opacity:1" fill="#5e6288" d="M 286.5,105.5 C 286.5,108.167 286.5,110.833 286.5,113.5C 269.167,113.5 251.833,113.5 234.5,113.5C 234.5,110.833 234.5,108.167 234.5,105.5C 251.833,105.5 269.167,105.5 286.5,105.5 Z"/></g>
<g><path style="opacity:1" fill="#727b95" d="M 286.5,104.5 C 286.5,104.833 286.5,105.167 286.5,105.5C 269.167,105.5 251.833,105.5 234.5,105.5C 234.5,108.167 234.5,110.833 234.5,113.5C 234.167,113.5 233.833,113.5 233.5,113.5C 233.5,113.167 233.5,112.833 233.5,112.5C 233.5,110.5 233.5,108.5 233.5,106.5C 250.802,104.514 268.468,103.847 286.5,104.5 Z"/></g>
<g><path style="opacity:1" fill="#bcbcc2" d="M 253.5,70.5 C 255.5,70.5 257.5,70.5 259.5,70.5C 259.167,71.1667 258.833,71.8333 258.5,72.5C 256.653,73.5729 254.653,73.5729 252.5,72.5C 252.833,71.8333 253.167,71.1667 253.5,70.5 Z"/></g>
<g><path style="opacity:0.98" fill="#f6f8f8" d="M 252.5,72.5 C 254.653,73.5729 256.653,73.5729 258.5,72.5C 262.5,71.8333 264.167,73.5 263.5,77.5C 259.167,77.5 254.833,77.5 250.5,77.5C 249.402,76.3991 249.235,75.0657 250,73.5C 250.671,72.7476 251.504,72.4142 252.5,72.5 Z"/></g>
<g><path style="opacity:1" fill="#a2aec7" d="M 233.5,119.5 C 251.326,118.503 269.326,118.17 287.5,118.5C 287.813,122.042 287.479,125.375 286.5,128.5C 286.5,125.5 286.5,122.5 286.5,119.5C 268.833,119.5 251.167,119.5 233.5,119.5 Z"/></g>
<g><path style="opacity:1" fill="#606587" d="M 233.5,119.5 C 251.167,119.5 268.833,119.5 286.5,119.5C 286.5,122.5 286.5,125.5 286.5,128.5C 268.659,128.83 250.992,128.497 233.5,127.5C 233.5,125.167 233.5,122.833 233.5,120.5C 233.5,120.167 233.5,119.833 233.5,119.5 Z"/></g>
<g><path style="opacity:1" fill="#61628a" d="M 234.5,121.5 C 250.503,121.333 266.503,121.5 282.5,122C 283.973,122.71 284.64,123.876 284.5,125.5C 267.854,126.409 251.188,126.742 234.5,126.5C 234.5,124.833 234.5,123.167 234.5,121.5 Z"/></g>
<g><path style="opacity:0.907" fill="#f5d086" d="M 175.5,131.5 C 188.833,131.5 202.167,131.5 215.5,131.5C 215.827,140.682 215.493,149.682 214.5,158.5C 214.5,149.833 214.5,141.167 214.5,132.5C 201.833,132.5 189.167,132.5 176.5,132.5C 176.5,141.167 176.5,149.833 176.5,158.5C 176.167,158.5 175.833,158.5 175.5,158.5C 174.167,149.5 174.167,140.5 175.5,131.5 Z"/></g>
<g><path style="opacity:1" fill="#fcc45c" d="M 214.5,158.5 C 201.833,158.5 189.167,158.5 176.5,158.5C 176.5,149.833 176.5,141.167 176.5,132.5C 189.167,132.5 201.833,132.5 214.5,132.5C 214.5,141.167 214.5,149.833 214.5,158.5 Z"/></g>
<g><path style="opacity:0.627" fill="#8f6e77" d="M 326.5,134.5 C 321.463,134.413 316.463,134.746 311.5,135.5C 314.186,134.009 317.186,133.343 320.5,133.5C 322.696,133.505 324.696,133.838 326.5,134.5 Z"/></g>
<g><path style="opacity:1" fill="#6d3a45" d="M 326.5,134.5 C 328.757,134.962 330.757,135.962 332.5,137.5C 335.2,136.333 337.867,136.5 340.5,138C 343.488,142.426 345.655,147.259 347,152.5C 348.351,154.019 349.851,155.352 351.5,156.5C 347.542,160.959 342.542,162.626 336.5,161.5C 336.737,162.791 336.404,163.791 335.5,164.5C 335.5,162.833 335.5,161.167 335.5,159.5C 333.025,157.591 330.359,155.924 327.5,154.5C 326.076,156.144 324.409,157.644 322.5,159C 319.518,159.498 316.518,159.665 313.5,159.5C 312.162,157.887 310.495,157.387 308.5,158C 307.891,159.948 307.224,161.782 306.5,163.5C 306.217,162.711 305.717,162.044 305,161.5C 304.316,162.784 304.483,163.951 305.5,165C 304.906,165.464 304.239,165.631 303.5,165.5C 302.391,165.443 301.391,165.11 300.5,164.5C 297.692,157.712 298.025,151.045 301.5,144.5C 303.562,140.105 306.896,137.105 311.5,135.5C 316.463,134.746 321.463,134.413 326.5,134.5 Z"/></g>
<g><path style="opacity:1" fill="#aec0d1" d="M 259.5,133.5 C 268.833,133.5 278.167,133.5 287.5,133.5C 287.5,135.167 287.5,136.833 287.5,138.5C 278.167,138.5 268.833,138.5 259.5,138.5C 259.5,136.833 259.5,135.167 259.5,133.5 Z"/></g>
<g><path style="opacity:1" fill="#f6c870" d="M 196.5,137.5 C 195.466,141.908 194.132,146.241 192.5,150.5C 192.439,152.721 193.105,153.054 194.5,151.5C 193.817,153.176 192.483,153.843 190.5,153.5C 190.567,152.041 190.234,150.708 189.5,149.5C 190.376,149.631 191.043,149.298 191.5,148.5C 190.737,147.281 189.737,146.281 188.5,145.5C 190.297,144.305 191.297,142.638 191.5,140.5C 193.942,140.646 194.609,139.813 193.5,138C 194.448,137.517 195.448,137.351 196.5,137.5 Z"/></g>
<g><path style="opacity:1" fill="#fbf3d5" d="M 199.5,141.5 C 202.004,142.639 204.67,143.306 207.5,143.5C 207.5,144.833 207.5,146.167 207.5,147.5C 205.046,147.321 202.879,147.987 201,149.5C 200.5,149.167 200,148.833 199.5,148.5C 200.263,147.281 201.263,146.281 202.5,145.5C 200.712,144.717 199.712,143.384 199.5,141.5 Z"/></g>
<g><path style="opacity:1" fill="#fbf2cf" d="M 191.5,140.5 C 191.297,142.638 190.297,144.305 188.5,145.5C 189.737,146.281 190.737,147.281 191.5,148.5C 191.043,149.298 190.376,149.631 189.5,149.5C 186.57,149.205 184.57,147.705 183.5,145C 185.707,142.729 188.374,141.229 191.5,140.5 Z"/></g>
<g><path style="opacity:1" fill="#fdf6da" d="M 196.5,137.5 C 197.675,137.281 198.675,137.614 199.5,138.5C 197.379,142.645 195.712,146.978 194.5,151.5C 193.105,153.054 192.439,152.721 192.5,150.5C 194.132,146.241 195.466,141.908 196.5,137.5 Z"/></g>
<g><path style="opacity:1" fill="#e0b06b" d="M 327.5,154.5 C 323.825,150.632 323.658,146.632 327,142.5C 327.105,146.36 327.938,150.026 329.5,153.5C 329.043,154.298 328.376,154.631 327.5,154.5 Z"/></g>
<g><path style="opacity:0.663" fill="#ecdbac" d="M 215.5,131.5 C 216.166,135.988 216.499,140.654 216.5,145.5C 216.493,150.551 215.827,155.217 214.5,159.5C 208.5,159.5 202.5,159.5 196.5,159.5C 189.313,159.825 182.313,159.491 175.5,158.5C 175.833,158.5 176.167,158.5 176.5,158.5C 189.167,158.5 201.833,158.5 214.5,158.5C 215.493,149.682 215.827,140.682 215.5,131.5 Z"/></g>
<g><path style="opacity:1" fill="#562633" d="M 327.5,154.5 C 330.359,155.924 333.025,157.591 335.5,159.5C 335.5,161.167 335.5,162.833 335.5,164.5C 335.25,166.674 334.25,168.341 332.5,169.5C 329.178,170.492 325.845,171.492 322.5,172.5C 319.298,171.901 316.298,170.734 313.5,169C 312.748,168.329 312.414,167.496 312.5,166.5C 313.369,164.283 313.702,161.95 313.5,159.5C 316.518,159.665 319.518,159.498 322.5,159C 324.409,157.644 326.076,156.144 327.5,154.5 Z"/></g>
<g><path style="opacity:0.885" fill="#dae8ed" d="M 293.5,102.5 C 296.572,102.183 299.572,102.516 302.5,103.5C 301.294,106.079 299.961,108.579 298.5,111C 299.448,111.483 300.448,111.649 301.5,111.5C 301.392,122.576 301.392,133.576 301.5,144.5C 298.025,151.045 297.692,157.712 300.5,164.5C 269.498,164.667 238.498,164.5 207.5,164C 206.643,163.311 205.977,162.478 205.5,161.5C 202.358,160.833 199.358,160.166 196.5,159.5C 202.5,159.5 208.5,159.5 214.5,159.5C 215.058,160.79 216.058,161.623 217.5,162C 244.025,162.626 270.359,162.626 296.5,162C 297.626,158.256 297.793,154.423 297,150.5C 295.633,151.524 294.8,151.024 294.5,149C 295.045,145.813 295.711,142.646 296.5,139.5C 297.72,139.887 298.387,140.72 298.5,142C 297.541,144.12 297.374,146.287 298,148.5C 298.333,148.167 298.667,147.833 299,147.5C 299.18,137.59 299.68,127.756 300.5,118C 298.624,116.983 296.624,116.149 294.5,115.5C 297.079,113.562 297.079,111.729 294.5,110C 295.337,108.989 295.67,107.822 295.5,106.5C 294.022,106.762 292.689,106.429 291.5,105.5C 293.216,105.003 294.883,104.669 296.5,104.5C 295.398,103.824 294.398,103.158 293.5,102.5 Z"/></g>
<g><path style="opacity:1" fill="#e6a2a4" d="M 313.5,159.5 C 313.702,161.95 313.369,164.283 312.5,166.5C 309.502,167.884 307.502,166.884 306.5,163.5C 307.224,161.782 307.891,159.948 308.5,158C 310.495,157.387 312.162,157.887 313.5,159.5 Z"/></g>
<g><path style="opacity:0.8" fill="#8e90aa" d="M 351.5,173.5 C 347.629,173.815 343.962,173.482 340.5,172.5C 342.401,172.567 344.234,172.233 346,171.5C 348.03,171.954 349.863,172.62 351.5,173.5 Z"/></g>
<g><path style="opacity:1" fill="#eab4ad" d="M 306.5,163.5 C 307.502,166.884 309.502,167.884 312.5,166.5C 312.414,167.496 312.748,168.329 313.5,169C 316.298,170.734 319.298,171.901 322.5,172.5C 325.845,171.492 329.178,170.492 332.5,169.5C 332.5,170.167 332.5,170.833 332.5,171.5C 329.709,173.735 326.709,175.735 323.5,177.5C 319.768,176.924 316.102,175.757 312.5,174C 309.604,170.934 306.604,168.101 303.5,165.5C 304.239,165.631 304.906,165.464 305.5,165C 304.483,163.951 304.316,162.784 305,161.5C 305.717,162.044 306.217,162.711 306.5,163.5 Z"/></g>
<g><path style="opacity:1" fill="#616389" d="M 332.5,171.5 C 335.385,171.194 338.052,171.527 340.5,172.5C 343.962,173.482 347.629,173.815 351.5,173.5C 354.495,173.294 357.162,173.96 359.5,175.5C 364.132,183.666 368.632,192 373,200.5C 374.807,204.756 376.307,209.089 377.5,213.5C 376.548,217.839 374.548,221.672 371.5,225C 361.856,232.453 350.856,235.787 338.5,235C 335.751,233.877 333.251,232.377 331,230.5C 327.575,225.926 324.408,221.26 321.5,216.5C 320.522,216.977 319.689,217.643 319,218.5C 315.711,224.743 312.711,231.076 310,237.5C 308.5,240.333 306.333,242.5 303.5,244C 291.184,243.573 278.851,243.073 266.5,242.5C 266.5,241.5 266.5,240.5 266.5,239.5C 266.5,238.167 266.5,236.833 266.5,235.5C 270.273,234.897 273.939,234.23 277.5,233.5C 277.833,233.5 278.167,233.5 278.5,233.5C 280.833,233.5 283.167,233.5 285.5,233.5C 288.518,233.665 291.518,233.498 294.5,233C 295.416,232.722 296.082,232.222 296.5,231.5C 300.644,220.736 303.977,209.736 306.5,198.5C 308.481,197.895 308.815,196.895 307.5,195.5C 310.093,191.071 313.593,187.404 318,184.5C 318.195,180.812 320.029,178.478 323.5,177.5C 326.709,175.735 329.709,173.735 332.5,171.5 Z"/></g>
<g><path style="opacity:1" fill="#484b68" d="M 359.5,175.5 C 371.392,180.223 379.892,188.557 385,200.5C 387.572,208.352 386.738,215.686 382.5,222.5C 380.394,219.746 378.728,216.746 377.5,213.5C 376.307,209.089 374.807,204.756 373,200.5C 368.632,192 364.132,183.666 359.5,175.5 Z"/></g>
<g><path style="opacity:1" fill="#75444f" d="M 304.5,194.5 C 272.5,194.5 240.5,194.5 208.5,194.5C 208.567,195.959 208.234,197.292 207.5,198.5C 206.221,201.112 204.555,203.445 202.5,205.5C 201.21,206.058 200.377,207.058 200,208.5C 197.045,205.677 195.212,206.344 194.5,210.5C 186.722,217.062 178.388,218.062 169.5,213.5C 168.571,214.689 168.238,216.022 168.5,217.5C 164.08,209.266 164.58,201.266 170,193.5C 171.113,192.695 172.279,192.028 173.5,191.5C 180.317,188.867 187.317,187.2 194.5,186.5C 196.986,181.338 199.819,181.338 203,186.5C 203.494,188.134 203.66,189.801 203.5,191.5C 237.243,193.112 270.91,194.112 304.5,194.5 Z"/></g>
<g><path style="opacity:1" fill="#7e5962" d="M 194.5,186.5 C 187.317,187.2 180.317,188.867 173.5,191.5C 175.649,189.254 178.316,187.754 181.5,187C 185.821,186.501 190.154,186.334 194.5,186.5 Z"/></g>
<g><path style="opacity:1" fill="#6f708e" d="M 120.5,190.5 C 117.311,191.514 114.478,193.18 112,195.5C 111.964,197.572 112.464,199.572 113.5,201.5C 104.294,208.197 95.7937,215.864 88,224.5C 87.8171,227.365 87.3171,230.031 86.5,232.5C 86.6641,229.813 86.4974,227.146 86,224.5C 84.8549,223.364 83.6883,222.364 82.5,221.5C 85.7673,219.573 88.7673,217.239 91.5,214.5C 95.4356,212.234 98.7689,209.234 101.5,205.5C 104.296,202.203 107.296,199.036 110.5,196C 107.156,190.692 108.322,186.859 114,184.5C 117.293,185.294 119.46,187.294 120.5,190.5 Z"/></g>
<g><path style="opacity:1" fill="#292e3e" d="M 304.5,194.5 C 305.609,194.557 306.609,194.89 307.5,195.5C 308.815,196.895 308.481,197.895 306.5,198.5C 273.5,198.5 240.5,198.5 207.5,198.5C 208.234,197.292 208.567,195.959 208.5,194.5C 240.5,194.5 272.5,194.5 304.5,194.5 Z"/></g>
<g><path style="opacity:1" fill="#303041" d="M 120.5,190.5 C 127.097,195.592 133.263,201.259 139,207.5C 139.738,209.881 139.238,211.881 137.5,213.5C 133.9,215.11 130.566,217.11 127.5,219.5C 124.985,221.842 122.485,221.842 120,219.5C 117.33,213.655 115.164,207.655 113.5,201.5C 112.464,199.572 111.964,197.572 112,195.5C 114.478,193.18 117.311,191.514 120.5,190.5 Z"/></g>
<g><path style="opacity:1" fill="#d0e2eb" d="M 207.5,198.5 C 240.5,198.5 273.5,198.5 306.5,198.5C 303.977,209.736 300.644,220.736 296.5,231.5C 292.846,231.942 289.179,232.276 285.5,232.5C 283.393,231.532 281.059,231.198 278.5,231.5C 276.777,230.2 274.61,229.533 272,229.5C 269.833,229.667 267.667,229.833 265.5,230C 266.448,230.483 267.448,230.649 268.5,230.5C 268.5,231.5 268.5,232.5 268.5,233.5C 271.5,233.5 274.5,233.5 277.5,233.5C 273.939,234.23 270.273,234.897 266.5,235.5C 265.413,233.26 263.58,231.927 261,231.5C 258.577,232.626 256.077,233.626 253.5,234.5C 252.101,235.89 250.434,236.89 248.5,237.5C 243.167,237.5 237.833,237.5 232.5,237.5C 232.5,240.5 232.5,243.5 232.5,246.5C 239.5,246.5 246.5,246.5 253.5,246.5C 257.187,248.343 261.187,249.01 265.5,248.5C 278.928,250.749 292.595,251.749 306.5,251.5C 306.5,254.833 306.5,258.167 306.5,261.5C 283.167,261.5 259.833,261.5 236.5,261.5C 235.263,260.035 234.263,258.368 233.5,256.5C 240.313,255.509 247.313,255.175 254.5,255.5C 254.5,253.5 254.5,251.5 254.5,249.5C 247.167,249.5 239.833,249.5 232.5,249.5C 232.5,251.167 232.5,252.833 232.5,254.5C 231.11,253.101 230.11,251.434 229.5,249.5C 229.5,245.833 229.5,242.167 229.5,238.5C 223.325,237.661 216.992,236.994 210.5,236.5C 207.5,236.5 204.5,236.5 201.5,236.5C 201.5,234.5 201.5,232.5 201.5,230.5C 201.806,227.615 201.473,224.948 200.5,222.5C 202.281,217.068 202.948,211.401 202.5,205.5C 204.555,203.445 206.221,201.112 207.5,198.5 Z"/></g>
<g><path style="opacity:1" fill="#f9fcfb" d="M 210.5,202.5 C 241.167,202.5 271.833,202.5 302.5,202.5C 302.762,203.978 302.429,205.311 301.5,206.5C 300.614,205.675 300.281,204.675 300.5,203.5C 299.5,203.5 298.5,203.5 297.5,203.5C 297.5,204.833 297.5,206.167 297.5,207.5C 268.5,207.5 239.5,207.5 210.5,207.5C 210.5,205.833 210.5,204.167 210.5,202.5 Z"/></g>
<g><path style="opacity:1" fill="#e9aca9" d="M 202.5,205.5 C 202.948,211.401 202.281,217.068 200.5,222.5C 199.833,222.5 199.5,222.833 199.5,223.5C 197.455,224.923 196.455,226.923 196.5,229.5C 194.304,229.41 192.137,229.077 190,228.5C 186.534,229.409 183.034,230.076 179.5,230.5C 181.076,229.857 182.41,228.857 183.5,227.5C 187.106,227.789 190.606,227.456 194,226.5C 196.743,221.131 196.909,215.797 194.5,210.5C 195.212,206.344 197.045,205.677 200,208.5C 200.377,207.058 201.21,206.058 202.5,205.5 Z"/></g>
<g><path style="opacity:1" fill="#aabacc" d="M 206.5,212.5 C 214.167,212.5 221.833,212.5 229.5,212.5C 229.5,219.833 229.5,227.167 229.5,234.5C 221.833,234.5 214.167,234.5 206.5,234.5C 206.5,227.167 206.5,219.833 206.5,212.5 Z"/></g>
<g><path style="opacity:0.729" fill="#9091a2" d="M 101.5,205.5 C 98.7689,209.234 95.4356,212.234 91.5,214.5C 94.2311,210.766 97.5644,207.766 101.5,205.5 Z"/></g>
<g><path style="opacity:1" fill="#582835" d="M 194.5,210.5 C 196.909,215.797 196.743,221.131 194,226.5C 190.606,227.456 187.106,227.789 183.5,227.5C 176.589,226.888 171.589,223.554 168.5,217.5C 168.238,216.022 168.571,214.689 169.5,213.5C 178.388,218.062 186.722,217.062 194.5,210.5 Z"/></g>
<g><path style="opacity:1" fill="#838fa8" d="M 232.5,211.5 C 239.508,211.334 246.508,211.5 253.5,212C 253.957,212.414 254.291,212.914 254.5,213.5C 247.197,214.497 239.863,214.831 232.5,214.5C 232.5,213.5 232.5,212.5 232.5,211.5 Z"/></g>
<g><path style="opacity:1" fill="#99cfb1" d="M 270.5,212.5 C 279.192,212.169 287.859,212.502 296.5,213.5C 292.167,213.833 287.833,214.167 283.5,214.5C 278.778,214.492 274.445,213.825 270.5,212.5 Z"/></g>
<g><path style="opacity:1" fill="#a5b3c8" d="M 253.5,219.5 C 250.572,218.18 247.239,217.514 243.5,217.5C 239.761,217.514 236.428,218.18 233.5,219.5C 232.596,218.791 232.263,217.791 232.5,216.5C 239.833,216.5 247.167,216.5 254.5,216.5C 254.737,217.791 254.404,218.791 253.5,219.5 Z"/></g>
<g><path style="opacity:1" fill="#e2d9b4" d="M 266.5,216.5 C 270.884,216.174 275.217,216.508 279.5,217.5C 277.333,217.833 275.167,218.167 273,218.5C 270.39,218.467 268.223,217.8 266.5,216.5 Z"/></g>
<g><path style="opacity:0.884" fill="#e9c47c" d="M 137.5,213.5 C 136.652,219.592 133.319,221.592 127.5,219.5C 130.566,217.11 133.9,215.11 137.5,213.5 Z"/></g>
<g><path style="opacity:1" fill="#717a93" d="M 253.5,219.5 C 246.833,219.5 240.167,219.5 233.5,219.5C 236.428,218.18 239.761,217.514 243.5,217.5C 247.239,217.514 250.572,218.18 253.5,219.5 Z"/></g>
<g><path style="opacity:1" fill="#cfe1d1" d="M 281.5,223.5 C 281.5,222.833 281.5,222.167 281.5,221.5C 283.98,220.27 286.314,218.77 288.5,217C 290.641,216.116 292.307,216.616 293.5,218.5C 291.922,219.298 290.256,219.798 288.5,220C 290.286,220.196 291.619,221.029 292.5,222.5C 288.893,223.489 285.226,223.823 281.5,223.5 Z"/></g>
<g><path style="opacity:1" fill="#928e97" d="M 281.5,221.5 C 281.5,222.167 281.5,222.833 281.5,223.5C 264.167,222.833 264.167,222.167 281.5,221.5 Z"/></g>
<g><path style="opacity:1" fill="#333547" d="M 82.5,221.5 C 83.6883,222.364 84.8549,223.364 86,224.5C 86.4974,227.146 86.6641,229.813 86.5,232.5C 86.1667,233.167 85.8333,233.833 85.5,234.5C 83.9505,235.441 82.2838,236.107 80.5,236.5C 71.4723,235.607 69.139,231.107 73.5,223C 76.3036,220.708 79.3036,220.208 82.5,221.5 Z"/></g>
<g><path style="opacity:1" fill="#bacddb" d="M 232.5,222.5 C 239.833,222.5 247.167,222.5 254.5,222.5C 254.286,224.144 254.62,225.644 255.5,227C 254.692,227.308 254.025,227.808 253.5,228.5C 246.5,229.833 239.5,229.833 232.5,228.5C 232.709,227.914 233.043,227.414 233.5,227C 239.833,226.667 246.167,226.333 252.5,226C 245.524,225.251 238.857,224.084 232.5,222.5 Z"/></g>
<g><path style="opacity:1" fill="#606285" d="M 77.5,225.5 C 83.0159,225.473 84.3492,227.64 81.5,232C 75.7377,232.418 74.4044,230.251 77.5,225.5 Z"/></g>
<g><path style="opacity:1" fill="#9199a7" d="M 199.5,223.5 C 199.5,222.833 199.833,222.5 200.5,222.5C 201.473,224.948 201.806,227.615 201.5,230.5C 201.167,230.5 200.833,230.5 200.5,230.5C 200.802,227.941 200.468,225.607 199.5,223.5 Z"/></g>
<g><path style="opacity:1" fill="#2f2734" d="M 199.5,223.5 C 200.468,225.607 200.802,227.941 200.5,230.5C 198.901,230.768 197.568,230.434 196.5,229.5C 196.455,226.923 197.455,224.923 199.5,223.5 Z"/></g>
<g><path style="opacity:1" fill="#d25573" d="M 196.5,229.5 C 197.568,230.434 198.901,230.768 200.5,230.5C 200.833,230.5 201.167,230.5 201.5,230.5C 201.5,232.5 201.5,234.5 201.5,236.5C 204.5,236.5 207.5,236.5 210.5,236.5C 212.214,237.738 214.214,238.405 216.5,238.5C 221.152,241.821 225.485,245.487 229.5,249.5C 230.11,251.434 231.11,253.101 232.5,254.5C 232.328,255.492 232.662,256.158 233.5,256.5C 234.263,258.368 235.263,260.035 236.5,261.5C 238.952,266.234 241.285,270.901 243.5,275.5C 243.62,276.586 244.287,277.253 245.5,277.5C 253.135,279.046 260.468,281.379 267.5,284.5C 268.5,285.833 269.5,287.167 270.5,288.5C 270.5,290.5 270.5,292.5 270.5,294.5C 270.167,294.5 269.833,294.5 269.5,294.5C 269.662,292.473 269.495,290.473 269,288.5C 268.612,289.428 267.945,290.095 267,290.5C 255.585,292.478 244.085,292.978 232.5,292C 230.04,290.542 227.873,288.709 226,286.5C 221.587,278.005 216.92,269.672 212,261.5C 209.5,259 207,256.5 204.5,254C 201.167,253 197.833,252 194.5,251C 181.504,250.5 168.504,250.333 155.5,250.5C 160.224,241.801 167.558,236.468 177.5,234.5C 178.172,233.051 178.839,231.718 179.5,230.5C 183.034,230.076 186.534,229.409 190,228.5C 192.137,229.077 194.304,229.41 196.5,229.5 Z"/></g>
<g><path style="opacity:1" fill="#b5e3d2" d="M 278.5,231.5 C 278.5,232.167 278.5,232.833 278.5,233.5C 278.167,233.5 277.833,233.5 277.5,233.5C 274.5,233.5 271.5,233.5 268.5,233.5C 268.5,232.5 268.5,231.5 268.5,230.5C 267.448,230.649 266.448,230.483 265.5,230C 267.667,229.833 269.833,229.667 272,229.5C 274.61,229.533 276.777,230.2 278.5,231.5 Z"/></g>
<g><path style="opacity:1" fill="#bea6ba" d="M 278.5,231.5 C 281.059,231.198 283.393,231.532 285.5,232.5C 285.5,232.833 285.5,233.167 285.5,233.5C 283.167,233.5 280.833,233.5 278.5,233.5C 278.5,232.833 278.5,232.167 278.5,231.5 Z"/></g>
<g><path style="opacity:1" fill="#638085" d="M 296.5,231.5 C 296.082,232.222 295.416,232.722 294.5,233C 291.518,233.498 288.518,233.665 285.5,233.5C 285.5,233.167 285.5,232.833 285.5,232.5C 289.179,232.276 292.846,231.942 296.5,231.5 Z"/></g>
<g><path style="opacity:1" fill="#abbdca" d="M 253.5,234.5 C 246.468,234.83 239.468,234.497 232.5,233.5C 236,233.167 239.5,232.833 243,232.5C 246.902,232.512 250.402,233.179 253.5,234.5 Z"/></g>
<g><path style="opacity:1" fill="#f1b9ad" d="M 266.5,235.5 C 266.5,236.833 266.5,238.167 266.5,239.5C 265.523,242.287 265.19,245.287 265.5,248.5C 261.187,249.01 257.187,248.343 253.5,246.5C 253.5,246.167 253.5,245.833 253.5,245.5C 253.5,243.833 253.5,242.167 253.5,240.5C 251.219,240.923 249.552,240.256 248.5,238.5C 248.5,238.167 248.5,237.833 248.5,237.5C 250.434,236.89 252.101,235.89 253.5,234.5C 256.077,233.626 258.577,232.626 261,231.5C 263.58,231.927 265.413,233.26 266.5,235.5 Z"/></g>
<g><path style="opacity:1" fill="#b2b2c9" d="M 210.5,236.5 C 216.992,236.994 223.325,237.661 229.5,238.5C 225.167,238.5 220.833,238.5 216.5,238.5C 214.214,238.405 212.214,237.738 210.5,236.5 Z"/></g>
<g><path style="opacity:1" fill="#be8e63" d="M 377.5,239.5 C 375.095,240.768 372.428,241.435 369.5,241.5C 371.838,239.96 374.505,239.294 377.5,239.5 Z"/></g>
<g><path style="opacity:1" fill="#e8a368" d="M 387.5,237.5 C 391.45,241.729 394.117,246.729 395.5,252.5C 395.167,252.5 394.833,252.5 394.5,252.5C 392.967,248.735 390.967,245.235 388.5,242C 385.093,240.065 381.426,239.232 377.5,239.5C 380.544,237.989 383.878,237.322 387.5,237.5 Z"/></g>
<g><path style="opacity:1" fill="#646185" d="M 216.5,238.5 C 220.833,238.5 225.167,238.5 229.5,238.5C 229.5,242.167 229.5,245.833 229.5,249.5C 225.485,245.487 221.152,241.821 216.5,238.5 Z"/></g>
<g><path style="opacity:1" fill="#c0835e" d="M 368.5,241.5 C 363.19,243.783 357.524,245.116 351.5,245.5C 356.853,243.425 362.52,242.091 368.5,241.5 Z"/></g>
<g><path style="opacity:1" fill="#555777" d="M 377.5,213.5 C 378.728,216.746 380.394,219.746 382.5,222.5C 383.969,227.574 385.636,232.574 387.5,237.5C 383.878,237.322 380.544,237.989 377.5,239.5C 374.505,239.294 371.838,239.96 369.5,241.5C 369.167,241.5 368.833,241.5 368.5,241.5C 362.52,242.091 356.853,243.425 351.5,245.5C 347.193,246.327 342.86,246.993 338.5,247.5C 338.167,247.5 337.833,247.5 337.5,247.5C 332.883,241.043 328.049,234.71 323,228.5C 319.7,234.48 316.366,240.48 313,246.5C 312.827,252.348 312.327,258.015 311.5,263.5C 311.666,258.489 311.499,253.489 311,248.5C 310.311,249.357 309.478,250.023 308.5,250.5C 307.833,254.313 307.166,257.979 306.5,261.5C 306.5,258.167 306.5,254.833 306.5,251.5C 292.595,251.749 278.928,250.749 265.5,248.5C 265.19,245.287 265.523,242.287 266.5,239.5C 266.5,240.5 266.5,241.5 266.5,242.5C 278.851,243.073 291.184,243.573 303.5,244C 306.333,242.5 308.5,240.333 310,237.5C 312.711,231.076 315.711,224.743 319,218.5C 319.689,217.643 320.522,216.977 321.5,216.5C 324.408,221.26 327.575,225.926 331,230.5C 333.251,232.377 335.751,233.877 338.5,235C 350.856,235.787 361.856,232.453 371.5,225C 374.548,221.672 376.548,217.839 377.5,213.5 Z"/></g>
<g><path style="opacity:1" fill="#ca5671" d="M 248.5,238.5 C 249.552,240.256 251.219,240.923 253.5,240.5C 253.5,242.167 253.5,243.833 253.5,245.5C 246.833,245.5 240.167,245.5 233.5,245.5C 233.5,243.167 233.5,240.833 233.5,238.5C 238.5,238.5 243.5,238.5 248.5,238.5 Z"/></g>
<g><path style="opacity:1" fill="#cf9cad" d="M 248.5,237.5 C 248.5,237.833 248.5,238.167 248.5,238.5C 243.5,238.5 238.5,238.5 233.5,238.5C 233.5,240.833 233.5,243.167 233.5,245.5C 240.167,245.5 246.833,245.5 253.5,245.5C 253.5,245.833 253.5,246.167 253.5,246.5C 246.5,246.5 239.5,246.5 232.5,246.5C 232.5,243.5 232.5,240.5 232.5,237.5C 237.833,237.5 243.167,237.5 248.5,237.5 Z"/></g>
<g><path style="opacity:1" fill="#f29948" d="M 377.5,239.5 C 381.426,239.232 385.093,240.065 388.5,242C 390.967,245.235 392.967,248.735 394.5,252.5C 394.631,253.376 394.298,254.043 393.5,254.5C 375.423,249.079 357.089,248.079 338.5,251.5C 338.5,250.167 338.5,248.833 338.5,247.5C 342.86,246.993 347.193,246.327 351.5,245.5C 357.524,245.116 363.19,243.783 368.5,241.5C 368.833,241.5 369.167,241.5 369.5,241.5C 372.428,241.435 375.095,240.768 377.5,239.5 Z"/></g>
<g><path style="opacity:1" fill="#98a4bc" d="M 233.5,256.5 C 232.662,256.158 232.328,255.492 232.5,254.5C 232.5,252.833 232.5,251.167 232.5,249.5C 239.833,249.5 247.167,249.5 254.5,249.5C 254.5,251.5 254.5,253.5 254.5,255.5C 247.313,255.175 240.313,255.509 233.5,256.5 Z"/></g>
<g><path style="opacity:1" fill="#fec45b" d="M 394.5,252.5 C 394.833,252.5 395.167,252.5 395.5,252.5C 396.434,253.568 396.768,254.901 396.5,256.5C 398.471,268.355 400.804,280.022 403.5,291.5C 405.593,309.446 405.926,327.446 404.5,345.5C 403.038,353.623 402.371,361.956 402.5,370.5C 402.5,371.167 402.5,371.833 402.5,372.5C 400.855,377.234 400.189,382.234 400.5,387.5C 400.5,387.833 400.5,388.167 400.5,388.5C 398.864,392.21 398.198,396.21 398.5,400.5C 398.5,401.167 398.5,401.833 398.5,402.5C 396.825,405.507 396.159,408.84 396.5,412.5C 396.66,414.199 396.494,415.866 396,417.5C 395.583,418.756 394.75,419.423 393.5,419.5C 388.167,419.5 382.833,419.5 377.5,419.5C 375.475,407.061 374.308,394.394 374,381.5C 373.79,379.942 373.29,378.609 372.5,377.5C 371.215,366.563 370.549,355.563 370.5,344.5C 370.5,340.833 370.5,337.167 370.5,333.5C 375.298,320.024 379.964,306.358 384.5,292.5C 384.333,292.167 384.167,291.833 384,291.5C 379.252,299.999 374.252,308.332 369,316.5C 368.503,318.81 368.337,321.143 368.5,323.5C 367.503,323.47 366.836,323.97 366.5,325C 364.904,329.306 363.238,333.473 361.5,337.5C 358.663,339.847 356.83,342.847 356,346.5C 355.148,350.189 354.315,353.856 353.5,357.5C 353.672,358.492 353.338,359.158 352.5,359.5C 348.256,365.012 345.423,371.345 344,378.5C 340.295,382.778 338.462,387.778 338.5,393.5C 336.59,394.975 335.424,396.975 335,399.5C 333.865,399.727 332.698,400.06 331.5,400.5C 332.309,402.071 332.643,403.738 332.5,405.5C 329.239,405.1 328.572,406.267 330.5,409C 329.22,411.36 328.553,413.86 328.5,416.5C 328.912,418.973 327.912,420.306 325.5,420.5C 325.167,420.5 324.833,420.5 324.5,420.5C 319.71,419.275 314.71,418.608 309.5,418.5C 308.828,417.733 307.995,417.066 307,416.5C 306.502,413.518 306.335,410.518 306.5,407.5C 307.458,407.047 308.292,406.381 309,405.5C 309.757,399.851 310.257,394.184 310.5,388.5C 312.177,384.455 312.844,380.122 312.5,375.5C 317.232,356.751 321.232,337.751 324.5,318.5C 325.693,318.03 326.36,317.03 326.5,315.5C 327.246,311.868 327.579,308.202 327.5,304.5C 327.851,301.097 328.518,297.763 329.5,294.5C 330.434,293.432 330.768,292.099 330.5,290.5C 330.5,289.833 330.5,289.167 330.5,288.5C 331.117,288.389 331.617,288.056 332,287.5C 333.64,281.944 334.473,276.278 334.5,270.5C 334.5,270.167 334.5,269.833 334.5,269.5C 335.117,269.389 335.617,269.056 336,268.5C 336.498,265.518 336.665,262.518 336.5,259.5C 336.5,259.167 336.5,258.833 336.5,258.5C 338.163,256.562 338.829,254.228 338.5,251.5C 357.089,248.079 375.423,249.079 393.5,254.5C 394.298,254.043 394.631,253.376 394.5,252.5 Z"/></g>
<g><path style="opacity:1" fill="#5c6084" d="M 233.5,250.5 C 240.167,250.5 246.833,250.5 253.5,250.5C 253.5,251.833 253.5,253.167 253.5,254.5C 246.833,254.5 240.167,254.5 233.5,254.5C 233.5,253.167 233.5,251.833 233.5,250.5 Z"/></g>
<g><path style="opacity:1" fill="#b44c48" d="M 154.5,255.5 C 167.66,254.34 180.994,254.173 194.5,255C 196.32,255.2 197.653,256.034 198.5,257.5C 196.571,257.769 194.905,257.269 193.5,256C 180.504,255.5 167.504,255.333 154.5,255.5 Z"/></g>
<g><path style="opacity:1" fill="#afdcc4" d="M 288.5,253.5 C 292.226,253.177 295.893,253.511 299.5,254.5C 298.975,255.192 298.308,255.692 297.5,256C 294.518,256.498 291.518,256.665 288.5,256.5C 288.5,255.5 288.5,254.5 288.5,253.5 Z"/></g>
<g><path style="opacity:0.835" fill="#f4d8a0" d="M 337.5,247.5 C 337.833,247.5 338.167,247.5 338.5,247.5C 338.5,248.833 338.5,250.167 338.5,251.5C 338.829,254.228 338.163,256.562 336.5,258.5C 337.114,254.865 337.448,251.198 337.5,247.5 Z"/></g>
<g><path style="opacity:1" fill="#fec45a" d="M 154.5,256.5 C 164.167,256.5 173.833,256.5 183.5,256.5C 189.693,259.851 194.86,264.518 199,270.5C 199.667,296.833 199.667,323.167 199,349.5C 198.535,350.931 197.701,352.097 196.5,353C 206.324,355.164 207.99,359.998 201.5,367.5C 199.833,367.5 198.167,367.5 196.5,367.5C 186.833,367.5 177.167,367.5 167.5,367.5C 166.873,351.593 167.54,335.926 169.5,320.5C 170.167,320.5 170.5,320.167 170.5,319.5C 171.651,314.35 171.817,309.016 171,303.5C 170.5,303 170,302.5 169.5,302C 165.167,301.333 160.833,301.333 156.5,302C 156,302.5 155.5,303 155,303.5C 154.183,309.016 154.349,314.35 155.5,319.5C 155.5,320.167 155.833,320.5 156.5,320.5C 158.46,335.592 159.126,350.925 158.5,366.5C 150.16,366.666 141.827,366.5 133.5,366C 134.476,363.853 134.309,361.686 133,359.5C 132.751,360.624 132.251,361.624 131.5,362.5C 131.167,362 130.833,361.5 130.5,361C 131.233,359.234 131.567,357.401 131.5,355.5C 134.074,352.983 133.408,351.316 129.5,350.5C 129.83,334.991 129.496,319.658 128.5,304.5C 128.5,301.167 128.5,297.833 128.5,294.5C 128.5,294.167 128.5,293.833 128.5,293.5C 129.328,287.013 129.828,280.346 130,273.5C 131.136,271.257 131.97,268.924 132.5,266.5C 138.503,260.275 145.836,256.942 154.5,256.5 Z"/></g>
<g><path style="opacity:1" fill="#f1965c" d="M 154.5,256.5 C 154.5,256.167 154.5,255.833 154.5,255.5C 167.504,255.333 180.504,255.5 193.5,256C 194.905,257.269 196.571,257.769 198.5,257.5C 199.167,258.167 199.833,258.833 200.5,259.5C 197.8,258.484 195.134,258.484 192.5,259.5C 190.219,256.772 187.219,255.772 183.5,256.5C 173.833,256.5 164.167,256.5 154.5,256.5 Z"/></g>
<g><path style="opacity:1" fill="#f4d087" d="M 153.5,255.5 C 153.833,255.5 154.167,255.5 154.5,255.5C 154.5,255.833 154.5,256.167 154.5,256.5C 145.836,256.942 138.503,260.275 132.5,266.5C 137.297,258.932 144.297,255.265 153.5,255.5 Z"/></g>
<g><path style="opacity:1" fill="#767894" d="M 85.5,234.5 C 91.5433,248.256 97.8766,261.923 104.5,275.5C 103.883,275.389 103.383,275.056 103,274.5C 102.503,276.81 102.337,279.143 102.5,281.5C 94.9278,266.688 87.5945,251.688 80.5,236.5C 82.2838,236.107 83.9505,235.441 85.5,234.5 Z"/></g>
<g><path style="opacity:1" fill="#f2984a" d="M 183.5,256.5 C 187.219,255.772 190.219,256.772 192.5,259.5C 195.134,258.484 197.8,258.484 200.5,259.5C 206.065,262.607 209.731,267.274 211.5,273.5C 212.499,287.484 212.833,301.484 212.5,315.5C 212.667,326.838 212.5,338.172 212,349.5C 210.833,350.667 209.667,351.833 208.5,353C 212.152,353.499 215.818,353.665 219.5,353.5C 219.833,354.5 220.5,355.167 221.5,355.5C 222.167,355.5 222.5,355.833 222.5,356.5C 222.5,358.833 222.5,361.167 222.5,363.5C 221.5,363.5 220.5,363.5 219.5,363.5C 219.5,364.5 219.5,365.5 219.5,366.5C 213.536,367.307 207.536,367.64 201.5,367.5C 207.99,359.998 206.324,355.164 196.5,353C 197.701,352.097 198.535,350.931 199,349.5C 199.667,323.167 199.667,296.833 199,270.5C 194.86,264.518 189.693,259.851 183.5,256.5 Z"/></g>
<g><path style="opacity:1" fill="#2e3040" d="M 311.5,263.5 C 310.974,268.858 307.974,271.691 302.5,272C 290.845,271.895 279.178,271.728 267.5,271.5C 267.5,274.5 267.5,277.5 267.5,280.5C 266.795,277.772 266.128,274.939 265.5,272C 257.833,271.333 250.167,271.333 242.5,272C 243.337,273.011 243.67,274.178 243.5,275.5C 241.285,270.901 238.952,266.234 236.5,261.5C 259.833,261.5 283.167,261.5 306.5,261.5C 307.166,257.979 307.833,254.313 308.5,250.5C 309.478,250.023 310.311,249.357 311,248.5C 311.499,253.489 311.666,258.489 311.5,263.5 Z"/></g>
<g><path style="opacity:1" fill="#b8435d" d="M 155.5,250.5 C 168.504,250.333 181.504,250.5 194.5,251C 197.833,252 201.167,253 204.5,254C 207,256.5 209.5,259 212,261.5C 216.92,269.672 221.587,278.005 226,286.5C 227.873,288.709 230.04,290.542 232.5,292C 244.085,292.978 255.585,292.478 267,290.5C 267.945,290.095 268.612,289.428 269,288.5C 269.495,290.473 269.662,292.473 269.5,294.5C 265.833,295.167 262.167,295.833 258.5,296.5C 247.726,298.114 237.059,297.781 226.5,295.5C 226.5,294.167 225.833,293.5 224.5,293.5C 224.5,292.833 224.167,292.5 223.5,292.5C 222.094,292.027 221.427,291.027 221.5,289.5C 221.217,288.711 220.717,288.044 220,287.5C 219.503,289.81 219.337,292.143 219.5,294.5C 219.5,297.833 219.5,301.167 219.5,304.5C 219.5,308.167 219.5,311.833 219.5,315.5C 217.167,315.5 214.833,315.5 212.5,315.5C 212.833,301.484 212.499,287.484 211.5,273.5C 209.731,267.274 206.065,262.607 200.5,259.5C 199.833,258.833 199.167,258.167 198.5,257.5C 197.653,256.034 196.32,255.2 194.5,255C 180.994,254.173 167.66,254.34 154.5,255.5C 154.167,255.5 153.833,255.5 153.5,255.5C 153.402,253.447 154.069,251.78 155.5,250.5 Z M 221.5,289.5 C 221.427,291.027 222.094,292.027 223.5,292.5C 222.791,293.404 221.791,293.737 220.5,293.5C 220.232,291.901 220.566,290.568 221.5,289.5 Z"/></g>
<g><path style="opacity:0.957" fill="#f6d187" d="M 336.5,259.5 C 336.665,262.518 336.498,265.518 336,268.5C 335.617,269.056 335.117,269.389 334.5,269.5C 334.549,265.922 335.215,262.589 336.5,259.5 Z"/></g>
<g><path style="opacity:1" fill="#1b1923" d="M 267.5,280.5 C 267.5,281.167 267.5,281.833 267.5,282.5C 267.5,283.167 267.5,283.833 267.5,284.5C 260.468,281.379 253.135,279.046 245.5,277.5C 244.287,277.253 243.62,276.586 243.5,275.5C 243.67,274.178 243.337,273.011 242.5,272C 250.167,271.333 257.833,271.333 265.5,272C 266.128,274.939 266.795,277.772 267.5,280.5 Z"/></g>
<g><path style="opacity:0.933" fill="#f5d58f" d="M 396.5,256.5 C 400.645,267.678 402.978,279.344 403.5,291.5C 400.804,280.022 398.471,268.355 396.5,256.5 Z"/></g>
<g><path style="opacity:1" fill="#f6d189" d="M 334.5,270.5 C 334.473,276.278 333.64,281.944 332,287.5C 331.617,288.056 331.117,288.389 330.5,288.5C 331.215,282.245 332.549,276.245 334.5,270.5 Z"/></g>
<g><path style="opacity:0.793" fill="#f1cf85" d="M 132.5,266.5 C 131.97,268.924 131.136,271.257 130,273.5C 129.828,280.346 129.328,287.013 128.5,293.5C 128.5,289.167 128.5,284.833 128.5,280.5C 128.336,277.813 128.503,275.146 129,272.5C 129.424,269.975 130.59,267.975 132.5,266.5 Z"/></g>
<g><path style="opacity:1" fill="#5f6187" d="M 104.5,275.5 C 104.357,277.262 104.691,278.929 105.5,280.5C 104.867,282.519 103.867,282.853 102.5,281.5C 102.337,279.143 102.503,276.81 103,274.5C 103.383,275.056 103.883,275.389 104.5,275.5 Z"/></g>
<g><path style="opacity:0.021" fill="#fef5cf" d="M 128.5,280.5 C 128.5,284.833 128.5,289.167 128.5,293.5C 127.833,293.5 127.167,293.5 126.5,293.5C 127.113,289.063 127.78,284.73 128.5,280.5 Z"/></g>
<g><path style="opacity:1" fill="#7d7e95" d="M 104.5,275.5 C 107.284,279.405 109.284,283.738 110.5,288.5C 105.537,289.254 100.537,289.587 95.5,289.5C 95.5,290.5 95.5,291.5 95.5,292.5C 95.5,292.833 95.5,293.167 95.5,293.5C 94.8333,293.5 94.5,293.167 94.5,292.5C 94.5,291.167 94.5,289.833 94.5,288.5C 98.1817,288.665 101.848,288.499 105.5,288C 104.086,286.007 103.086,283.84 102.5,281.5C 103.867,282.853 104.867,282.519 105.5,280.5C 104.691,278.929 104.357,277.262 104.5,275.5 Z"/></g>
<g><path style="opacity:1" fill="#f3b8af" d="M 267.5,282.5 C 271.718,283.981 276.052,285.315 280.5,286.5C 280.56,289.341 281.226,292.007 282.5,294.5C 281.167,294.5 279.833,294.5 278.5,294.5C 279.598,293.603 279.598,292.77 278.5,292C 275.733,290.917 273.067,289.75 270.5,288.5C 269.5,287.167 268.5,285.833 267.5,284.5C 267.5,283.833 267.5,283.167 267.5,282.5 Z"/></g>
<g><path style="opacity:0.024" fill="#e8c6c7" d="M 221.5,289.5 C 220.566,290.568 220.232,291.901 220.5,293.5C 221.791,293.737 222.791,293.404 223.5,292.5C 224.167,292.5 224.5,292.833 224.5,293.5C 223.081,294.451 221.415,294.784 219.5,294.5C 219.337,292.143 219.503,289.81 220,287.5C 220.717,288.044 221.217,288.711 221.5,289.5 Z"/></g>
<g><path style="opacity:1" fill="#272837" d="M 110.5,288.5 C 114.634,289.485 118.968,289.818 123.5,289.5C 123.5,290.5 123.5,291.5 123.5,292.5C 114.167,292.5 104.833,292.5 95.5,292.5C 95.5,291.5 95.5,290.5 95.5,289.5C 100.537,289.587 105.537,289.254 110.5,288.5 Z"/></g>
<g><path style="opacity:1" fill="#e68c96" d="M 270.5,288.5 C 273.067,289.75 275.733,290.917 278.5,292C 279.598,292.77 279.598,293.603 278.5,294.5C 275.833,294.5 273.167,294.5 270.5,294.5C 270.5,292.5 270.5,290.5 270.5,288.5 Z"/></g>
<g><path style="opacity:1" fill="#454450" d="M 110.5,288.5 C 115.167,288.5 119.833,288.5 124.5,288.5C 124.5,289.833 124.5,291.167 124.5,292.5C 115.014,293.494 105.348,293.827 95.5,293.5C 95.5,293.167 95.5,292.833 95.5,292.5C 104.833,292.5 114.167,292.5 123.5,292.5C 123.5,291.5 123.5,290.5 123.5,289.5C 118.968,289.818 114.634,289.485 110.5,288.5 Z"/></g>
<g><path style="opacity:1" fill="#d6b4a3" d="M 94.5,292.5 C 94.5,293.167 94.8333,293.5 95.5,293.5C 105.348,293.827 115.014,293.494 124.5,292.5C 125.167,292.833 125.833,293.167 126.5,293.5C 127.167,293.5 127.833,293.5 128.5,293.5C 128.5,293.833 128.5,294.167 128.5,294.5C 112.5,294.5 96.5,294.5 80.5,294.5C 80.1667,294.5 79.8333,294.5 79.5,294.5C 84.3634,293.734 89.3634,293.068 94.5,292.5 Z"/></g>
<g><path style="opacity:0.195" fill="#e7c5af" d="M 280.5,286.5 C 282.834,288.176 283.834,290.509 283.5,293.5C 298.833,293.5 314.167,293.5 329.5,293.5C 329.263,292.209 329.596,291.209 330.5,290.5C 330.768,292.099 330.434,293.432 329.5,294.5C 313.833,294.5 298.167,294.5 282.5,294.5C 281.226,292.007 280.56,289.341 280.5,286.5 Z"/></g>
<g><path style="opacity:1" fill="#c36c3c" d="M 80.5,294.5 C 96.5,294.5 112.5,294.5 128.5,294.5C 128.5,297.833 128.5,301.167 128.5,304.5C 123.5,304.5 118.5,304.5 113.5,304.5C 109.702,303.517 105.702,303.183 101.5,303.5C 94.5,303.5 87.5,303.5 80.5,303.5C 80.5,300.5 80.5,297.5 80.5,294.5 Z"/></g>
<g><path style="opacity:1" fill="#c26c3c" d="M 269.5,294.5 C 269.833,294.5 270.167,294.5 270.5,294.5C 273.167,294.5 275.833,294.5 278.5,294.5C 279.833,294.5 281.167,294.5 282.5,294.5C 298.167,294.5 313.833,294.5 329.5,294.5C 328.518,297.763 327.851,301.097 327.5,304.5C 326.5,304.5 325.5,304.5 324.5,304.5C 320.5,303.167 316.5,303.167 312.5,304.5C 312.167,304.5 311.833,304.5 311.5,304.5C 281.338,303.502 251.005,303.169 220.5,303.5C 220.5,301.167 220.5,298.833 220.5,296.5C 222.5,296.5 224.5,296.5 226.5,296.5C 230.41,298.946 234.743,299.946 239.5,299.5C 246.116,299.452 252.45,298.452 258.5,296.5C 262.167,295.833 265.833,295.167 269.5,294.5 Z"/></g>
<g><path style="opacity:1" fill="#b84a51" d="M 226.5,296.5 C 226.5,296.167 226.5,295.833 226.5,295.5C 237.059,297.781 247.726,298.114 258.5,296.5C 252.45,298.452 246.116,299.452 239.5,299.5C 234.743,299.946 230.41,298.946 226.5,296.5 Z"/></g>
<g><path style="opacity:1" fill="#2c211c" d="M 170.5,319.5 C 170.827,314.786 170.493,310.12 169.5,305.5C 167.397,303.12 166.23,303.787 166,307.5C 164.812,306.437 164.312,305.103 164.5,303.5C 161.833,303.5 159.167,303.5 156.5,303.5C 155.658,308.787 155.324,314.12 155.5,319.5C 154.349,314.35 154.183,309.016 155,303.5C 155.5,303 156,302.5 156.5,302C 160.833,301.333 165.167,301.333 169.5,302C 170,302.5 170.5,303 171,303.5C 171.817,309.016 171.651,314.35 170.5,319.5 Z"/></g>
<g><path style="opacity:0.79" fill="#cd8c6d" d="M 224.5,293.5 C 225.833,293.5 226.5,294.167 226.5,295.5C 226.5,295.833 226.5,296.167 226.5,296.5C 224.5,296.5 222.5,296.5 220.5,296.5C 220.5,298.833 220.5,301.167 220.5,303.5C 251.005,303.169 281.338,303.502 311.5,304.5C 309.5,304.5 307.5,304.5 305.5,304.5C 276.933,305.794 248.599,305.794 220.5,304.5C 220.167,304.5 219.833,304.5 219.5,304.5C 219.5,301.167 219.5,297.833 219.5,294.5C 221.415,294.784 223.081,294.451 224.5,293.5 Z"/></g>
<g><path style="opacity:1" fill="#aa5226" d="M 312.5,304.5 C 316.5,303.167 320.5,303.167 324.5,304.5C 323.515,308.634 323.182,312.968 323.5,317.5C 320.167,317.5 316.833,317.5 313.5,317.5C 313.818,312.968 313.485,308.634 312.5,304.5 Z"/></g>
<g><path style="opacity:1" fill="#aa5325" d="M 101.5,303.5 C 105.702,303.183 109.702,303.517 113.5,304.5C 112.515,308.634 112.182,312.968 112.5,317.5C 109.167,317.5 105.833,317.5 102.5,317.5C 102.774,312.737 102.441,308.07 101.5,303.5 Z"/></g>
<g><path style="opacity:0.8" fill="#f5cf87" d="M 324.5,305.5 C 324.5,305.167 324.5,304.833 324.5,304.5C 325.5,304.5 326.5,304.5 327.5,304.5C 327.579,308.202 327.246,311.868 326.5,315.5C 326.36,317.03 325.693,318.03 324.5,318.5C 324.5,317.167 324.5,315.833 324.5,314.5C 325.532,312.566 326.198,310.4 326.5,308C 326.316,306.624 325.649,305.791 324.5,305.5 Z"/></g>
<g><path style="opacity:0.763" fill="#f5d694" d="M 128.5,304.5 C 129.496,319.658 129.83,334.991 129.5,350.5C 128.698,349.048 128.198,347.382 128,345.5C 127.344,331.95 127.511,318.617 128.5,305.5C 128.5,305.167 128.5,304.833 128.5,304.5 Z"/></g>
<g><path style="opacity:0.082" fill="#dbd2db" d="M 219.5,304.5 C 219.833,304.5 220.167,304.5 220.5,304.5C 220.5,307.833 220.5,311.167 220.5,314.5C 223.059,314.198 225.393,314.532 227.5,315.5C 225.5,315.5 223.5,315.5 221.5,315.5C 220.833,315.5 220.167,315.5 219.5,315.5C 219.5,311.833 219.5,308.167 219.5,304.5 Z"/></g>
<g><path style="opacity:1" fill="#f29c47" d="M 370.5,333.5 C 370.598,331.447 369.931,329.78 368.5,328.5C 368.5,326.833 368.5,325.167 368.5,323.5C 368.337,321.143 368.503,318.81 369,316.5C 374.252,308.332 379.252,299.999 384,291.5C 384.167,291.833 384.333,292.167 384.5,292.5C 379.964,306.358 375.298,320.024 370.5,333.5 Z"/></g>
<g><path style="opacity:1" fill="#62648a" d="M 221.5,315.5 C 223.5,315.5 225.5,315.5 227.5,315.5C 239.356,315.064 250.69,317.23 261.5,322C 264.268,323.762 265.768,326.262 266,329.5C 267.205,337.119 267.705,344.786 267.5,352.5C 266.539,350.735 266.205,348.735 266.5,346.5C 254.274,350.209 242.608,349.043 231.5,343C 224.135,335.42 220.802,326.253 221.5,315.5 Z"/></g>
<g><path style="opacity:1" fill="#292936" d="M 170.5,319.5 C 170.5,320.167 170.167,320.5 169.5,320.5C 168.5,320.5 167.5,320.5 166.5,320.5C 166.5,336.5 166.5,352.5 166.5,368.5C 171.167,368.5 175.833,368.5 180.5,368.5C 180.714,370.144 180.38,371.644 179.5,373C 176.964,373.186 174.631,373.686 172.5,374.5C 170.833,374.5 169.167,374.5 167.5,374.5C 167.5,390.833 167.5,407.167 167.5,423.5C 167.167,423.5 166.833,423.5 166.5,423.5C 166.667,407.163 166.5,390.83 166,374.5C 163.928,374.661 161.761,374.328 159.5,373.5C 160.769,356.016 160.769,338.683 159.5,321.5C 158.791,320.596 157.791,320.263 156.5,320.5C 155.833,320.5 155.5,320.167 155.5,319.5C 155.324,314.12 155.658,308.787 156.5,303.5C 159.167,303.5 161.833,303.5 164.5,303.5C 164.312,305.103 164.812,306.437 166,307.5C 166.23,303.787 167.397,303.12 169.5,305.5C 170.493,310.12 170.827,314.786 170.5,319.5 Z"/></g>
<g><path style="opacity:1" fill="#c16f3f" d="M 312.5,304.5 C 313.485,308.634 313.818,312.968 313.5,317.5C 316.833,317.5 320.167,317.5 323.5,317.5C 323.182,312.968 323.515,308.634 324.5,304.5C 324.5,304.833 324.5,305.167 324.5,305.5C 324.5,308.5 324.5,311.5 324.5,314.5C 324.5,315.833 324.5,317.167 324.5,318.5C 321.232,337.751 317.232,356.751 312.5,375.5C 312.5,351.833 312.5,328.167 312.5,304.5 Z"/></g>
<g><path style="opacity:0.57" fill="#c18d70" d="M 79.5,294.5 C 79.8333,294.5 80.1667,294.5 80.5,294.5C 80.5,297.5 80.5,300.5 80.5,303.5C 87.5,303.5 94.5,303.5 101.5,303.5C 102.441,308.07 102.774,312.737 102.5,317.5C 102.5,357.167 102.5,396.833 102.5,436.5C 105.833,436.5 109.167,436.5 112.5,436.5C 112.5,396.833 112.5,357.167 112.5,317.5C 112.182,312.968 112.515,308.634 113.5,304.5C 118.5,304.5 123.5,304.5 128.5,304.5C 128.5,304.833 128.5,305.167 128.5,305.5C 123.5,305.5 118.5,305.5 113.5,305.5C 113.5,346.833 113.5,388.167 113.5,429.5C 113.5,430.5 113.5,431.5 113.5,432.5C 113.5,434.167 113.5,435.833 113.5,437.5C 109.5,437.5 105.5,437.5 101.5,437.5C 101.5,435.5 101.5,433.5 101.5,431.5C 101.667,389.499 101.5,347.499 101,305.5C 94.2854,305.512 87.4521,305.346 80.5,305C 78.9716,303.352 78.3049,301.352 78.5,299C 78.5085,297.293 78.8418,295.793 79.5,294.5 Z"/></g>
<g><path style="opacity:1" fill="#c46b3b" d="M 102.5,317.5 C 105.833,317.5 109.167,317.5 112.5,317.5C 112.5,357.167 112.5,396.833 112.5,436.5C 109.167,436.5 105.833,436.5 102.5,436.5C 102.5,396.833 102.5,357.167 102.5,317.5 Z"/></g>
<g><path style="opacity:0.055" fill="#f2dfc8" d="M 305.5,304.5 C 307.5,304.5 309.5,304.5 311.5,304.5C 311.833,304.5 312.167,304.5 312.5,304.5C 312.5,328.167 312.5,351.833 312.5,375.5C 312.844,380.122 312.177,384.455 310.5,388.5C 311.457,360.855 311.79,333.188 311.5,305.5C 309.265,305.795 307.265,305.461 305.5,304.5 Z"/></g>
<g><path style="opacity:1" fill="#545676" d="M 212.5,315.5 C 214.833,315.5 217.167,315.5 219.5,315.5C 220.167,315.5 220.833,315.5 221.5,315.5C 220.802,326.253 224.135,335.42 231.5,343C 242.608,349.043 254.274,350.209 266.5,346.5C 266.205,348.735 266.539,350.735 267.5,352.5C 268.721,369.709 268.055,386.709 265.5,403.5C 264.596,404.209 264.263,405.209 264.5,406.5C 257.5,406.5 250.5,406.5 243.5,406.5C 243.737,405.209 243.404,404.209 242.5,403.5C 240.872,397.732 239.872,391.732 239.5,385.5C 239.932,382.123 239.265,379.123 237.5,376.5C 236.336,369.513 235.169,362.513 234,355.5C 232.246,353.75 230.079,353.083 227.5,353.5C 224.833,353.5 222.167,353.5 219.5,353.5C 215.818,353.665 212.152,353.499 208.5,353C 209.667,351.833 210.833,350.667 212,349.5C 212.5,338.172 212.667,326.838 212.5,315.5 Z"/></g>
<g><path style="opacity:1" fill="#392c2b" d="M 159.5,321.5 C 160.769,338.683 160.769,356.016 159.5,373.5C 158.549,372.081 158.216,370.415 158.5,368.5C 158.5,368.167 158.5,367.833 158.5,367.5C 159.496,352.342 159.83,337.009 159.5,321.5 Z"/></g>
<g><path style="opacity:1" fill="#b99a61" d="M 156.5,320.5 C 157.791,320.263 158.791,320.596 159.5,321.5C 159.83,337.009 159.496,352.342 158.5,367.5C 158.5,367.167 158.5,366.833 158.5,366.5C 159.126,350.925 158.46,335.592 156.5,320.5 Z"/></g>
<g><path style="opacity:1" fill="#a88c5d" d="M 169.5,320.5 C 167.54,335.926 166.873,351.593 167.5,367.5C 177.167,367.5 186.833,367.5 196.5,367.5C 196.5,367.833 196.5,368.167 196.5,368.5C 196.167,368.5 195.833,368.5 195.5,368.5C 190.5,368.5 185.5,368.5 180.5,368.5C 175.833,368.5 171.167,368.5 166.5,368.5C 166.5,352.5 166.5,336.5 166.5,320.5C 167.5,320.5 168.5,320.5 169.5,320.5 Z"/></g>
<g><path style="opacity:0.6" fill="#efc896" d="M 368.5,328.5 C 369.931,329.78 370.598,331.447 370.5,333.5C 370.5,337.167 370.5,340.833 370.5,344.5C 369.619,339.331 368.952,333.998 368.5,328.5 Z"/></g>
<g><path style="opacity:0.918" fill="#f4d895" d="M 361.5,337.5 C 359.346,344.46 356.679,351.126 353.5,357.5C 354.315,353.856 355.148,350.189 356,346.5C 356.83,342.847 358.663,339.847 361.5,337.5 Z"/></g>
<g><path style="opacity:0.239" fill="#f7e1ab" d="M 129.5,350.5 C 133.408,351.316 134.074,352.983 131.5,355.5C 131.608,353.486 130.942,351.82 129.5,350.5 Z"/></g>
<g><path style="opacity:0.035" fill="#dbd5da" d="M 219.5,353.5 C 222.167,353.5 224.833,353.5 227.5,353.5C 225.5,354.167 223.5,354.833 221.5,355.5C 220.5,355.167 219.833,354.5 219.5,353.5 Z"/></g>
<g><path style="opacity:1" fill="#f7cd7c" d="M 131.5,355.5 C 131.567,357.401 131.233,359.234 130.5,361C 130.833,361.5 131.167,362 131.5,362.5C 132.251,361.624 132.751,360.624 133,359.5C 134.309,361.686 134.476,363.853 133.5,366C 141.827,366.5 150.16,366.666 158.5,366.5C 158.5,366.833 158.5,367.167 158.5,367.5C 158.5,367.833 158.5,368.167 158.5,368.5C 150.16,368.666 141.827,368.5 133.5,368C 127.831,364.504 127.164,360.338 131.5,355.5 Z"/></g>
<g><path style="opacity:1" fill="#edb57e" d="M 222.5,356.5 C 225.168,360.097 224.835,363.597 221.5,367C 213.164,368.102 204.831,368.935 196.5,369.5C 196.5,369.167 196.5,368.833 196.5,368.5C 196.5,368.167 196.5,367.833 196.5,367.5C 198.167,367.5 199.833,367.5 201.5,367.5C 207.536,367.64 213.536,367.307 219.5,366.5C 219.5,365.5 219.5,364.5 219.5,363.5C 220.5,363.5 221.5,363.5 222.5,363.5C 222.5,361.167 222.5,358.833 222.5,356.5 Z"/></g>
<g><path style="opacity:0.125" fill="#fae8b9" d="M 404.5,345.5 C 404.434,354.029 403.767,362.362 402.5,370.5C 402.371,361.956 403.038,353.623 404.5,345.5 Z"/></g>
<g><path style="opacity:0.957" fill="#f7d58d" d="M 352.5,359.5 C 348.403,371.14 343.736,382.473 338.5,393.5C 338.462,387.778 340.295,382.778 344,378.5C 345.423,371.345 348.256,365.012 352.5,359.5 Z"/></g>
<g><path style="opacity:1" fill="#12141e" d="M 172.5,374.5 C 172.5,385.167 172.5,395.833 172.5,406.5C 172.5,410.5 172.5,414.5 172.5,418.5C 172.5,420.167 172.5,421.833 172.5,423.5C 170.833,423.5 169.167,423.5 167.5,423.5C 167.5,407.167 167.5,390.833 167.5,374.5C 169.167,374.5 170.833,374.5 172.5,374.5 Z"/></g>
<g><path style="opacity:1" fill="#494c6b" d="M 180.5,368.5 C 185.5,368.5 190.5,368.5 195.5,368.5C 195.666,375.508 195.5,382.508 195,389.5C 194.667,385.833 194.333,382.167 194,378.5C 187.159,386.186 182.993,395.186 181.5,405.5C 178.615,405.194 175.948,405.527 173.5,406.5C 173.167,406.5 172.833,406.5 172.5,406.5C 172.5,395.833 172.5,385.167 172.5,374.5C 174.631,373.686 176.964,373.186 179.5,373C 180.38,371.644 180.714,370.144 180.5,368.5 Z"/></g>
<g><path style="opacity:1" fill="#5c5e7f" d="M 195.5,368.5 C 195.833,368.5 196.167,368.5 196.5,368.5C 196.5,368.833 196.5,369.167 196.5,369.5C 196.829,380.616 196.162,391.616 194.5,402.5C 193.566,403.568 193.232,404.901 193.5,406.5C 186.833,406.5 180.167,406.5 173.5,406.5C 175.948,405.527 178.615,405.194 181.5,405.5C 182.993,395.186 187.159,386.186 194,378.5C 194.333,382.167 194.667,385.833 195,389.5C 195.5,382.508 195.666,375.508 195.5,368.5 Z"/></g>
<g><path style="opacity:0.576" fill="#9495a4" d="M 237.5,376.5 C 239.265,379.123 239.932,382.123 239.5,385.5C 238.525,382.689 237.858,379.689 237.5,376.5 Z"/></g>
<g><path style="opacity:0.29" fill="#f8e2ae" d="M 402.5,372.5 C 402.259,377.694 401.593,382.694 400.5,387.5C 400.189,382.234 400.855,377.234 402.5,372.5 Z"/></g>
<g><path style="opacity:0.349" fill="#f8e0aa" d="M 400.5,388.5 C 400.461,392.733 399.795,396.733 398.5,400.5C 398.198,396.21 398.864,392.21 400.5,388.5 Z"/></g>
<g><path style="opacity:0.173" fill="#f7dda5" d="M 372.5,377.5 C 373.29,378.609 373.79,379.942 374,381.5C 374.308,394.394 375.475,407.061 377.5,419.5C 377.5,420.167 377.5,420.833 377.5,421.5C 377.167,421.5 376.833,421.5 376.5,421.5C 374.399,406.955 373.065,392.288 372.5,377.5 Z"/></g>
<g><path style="opacity:1" fill="#f7cd80" d="M 310.5,388.5 C 310.257,394.184 309.757,399.851 309,405.5C 308.292,406.381 307.458,407.047 306.5,407.5C 307.343,400.943 308.677,394.61 310.5,388.5 Z"/></g>
<g><path style="opacity:1" fill="#f7d386" d="M 338.5,393.5 C 335.959,401.575 332.626,409.241 328.5,416.5C 328.553,413.86 329.22,411.36 330.5,409C 328.572,406.267 329.239,405.1 332.5,405.5C 332.643,403.738 332.309,402.071 331.5,400.5C 332.698,400.06 333.865,399.727 335,399.5C 335.424,396.975 336.59,394.975 338.5,393.5 Z"/></g>
<g><path style="opacity:1" fill="#7d809c" d="M 194.5,402.5 C 195.999,408.816 195.332,414.816 192.5,420.5C 187.595,419.555 182.595,419.221 177.5,419.5C 176.081,418.549 174.415,418.216 172.5,418.5C 172.5,414.5 172.5,410.5 172.5,406.5C 172.833,406.5 173.167,406.5 173.5,406.5C 180.167,406.5 186.833,406.5 193.5,406.5C 193.232,404.901 193.566,403.568 194.5,402.5 Z"/></g>
<g><path style="opacity:1" fill="#7f819d" d="M 242.5,403.5 C 243.404,404.209 243.737,405.209 243.5,406.5C 250.5,406.5 257.5,406.5 264.5,406.5C 264.263,405.209 264.596,404.209 265.5,403.5C 266.862,409.249 266.529,414.915 264.5,420.5C 259.26,419.551 253.927,419.218 248.5,419.5C 246.533,419.739 244.699,419.406 243,418.5C 242.073,414.987 241.239,411.487 240.5,408C 242.037,406.89 242.703,405.39 242.5,403.5 Z"/></g>
<g><path style="opacity:0.2" fill="#f7dfae" d="M 398.5,402.5 C 398.247,406.04 397.581,409.373 396.5,412.5C 396.159,408.84 396.825,405.507 398.5,402.5 Z"/></g>
<g><path style="opacity:0.584" fill="#f8da9f" d="M 306.5,407.5 C 306.335,410.518 306.502,413.518 307,416.5C 307.995,417.066 308.828,417.733 309.5,418.5C 308.833,418.5 308.5,418.833 308.5,419.5C 306.156,419.494 304.822,418.327 304.5,416C 304.912,412.973 305.579,410.14 306.5,407.5 Z"/></g>
<g><path style="opacity:1" fill="#2d2e3f" d="M 177.5,419.5 C 182.595,419.221 187.595,419.555 192.5,420.5C 194.451,423.785 197.118,426.451 200.5,428.5C 201.127,429.417 201.461,430.417 201.5,431.5C 201.714,433.144 201.38,434.644 200.5,436C 192.889,437.478 185.222,437.812 177.5,437C 176.594,435.301 176.261,433.467 176.5,431.5C 176.5,430.5 176.5,429.5 176.5,428.5C 179.833,428.5 183.167,428.5 186.5,428.5C 186.5,426.833 186.5,425.167 186.5,423.5C 183.5,423.5 180.5,423.5 177.5,423.5C 177.5,422.167 177.5,420.833 177.5,419.5 Z"/></g>
<g><path style="opacity:1" fill="#2e2f41" d="M 248.5,419.5 C 253.927,419.218 259.26,419.551 264.5,420.5C 267.299,424.382 270.299,428.048 273.5,431.5C 273.714,433.144 273.38,434.644 272.5,436C 264.851,437.055 257.185,437.388 249.5,437C 247.845,435.556 247.178,433.722 247.5,431.5C 247.395,427.452 247.728,423.452 248.5,419.5 Z"/></g>
<g><path style="opacity:1" fill="#d15672" d="M 309.5,418.5 C 314.71,418.608 319.71,419.275 324.5,420.5C 324.676,425.88 324.342,431.213 323.5,436.5C 315.833,436.5 308.167,436.5 300.5,436.5C 299.539,434.735 299.205,432.735 299.5,430.5C 301.167,429.5 302.5,428.167 303.5,426.5C 305.833,426.167 307.167,424.833 307.5,422.5C 307.557,421.391 307.89,420.391 308.5,419.5C 308.5,418.833 308.833,418.5 309.5,418.5 Z"/></g>
<g><path style="opacity:1" fill="#d25a76" d="M 377.5,419.5 C 382.833,419.5 388.167,419.5 393.5,419.5C 393.5,422.5 393.5,425.5 393.5,428.5C 393.663,430.857 393.497,433.19 393,435.5C 392.25,436.126 391.416,436.626 390.5,437C 383.174,437.5 375.841,437.666 368.5,437.5C 368.5,435.167 368.5,432.833 368.5,430.5C 370.167,429.5 371.5,428.167 372.5,426.5C 375.167,425.833 376.833,424.167 377.5,421.5C 377.5,420.833 377.5,420.167 377.5,419.5 Z"/></g>
<g><path style="opacity:0.03" fill="#c3c4c8" d="M 172.5,418.5 C 174.415,418.216 176.081,418.549 177.5,419.5C 177.5,420.833 177.5,422.167 177.5,423.5C 175.833,423.5 174.167,423.5 172.5,423.5C 172.5,421.833 172.5,420.167 172.5,418.5 Z M 173.5,419.5 C 174.5,419.5 175.5,419.5 176.5,419.5C 176.5,420.5 176.5,421.5 176.5,422.5C 175.5,422.5 174.5,422.5 173.5,422.5C 173.5,421.5 173.5,420.5 173.5,419.5 Z"/></g>
<g><path style="opacity:0.592" fill="#da97a9" d="M 376.5,421.5 C 376.833,421.5 377.167,421.5 377.5,421.5C 376.833,424.167 375.167,425.833 372.5,426.5C 373.833,424.833 375.167,423.167 376.5,421.5 Z"/></g>
<g><path style="opacity:1" fill="#2c2b38" d="M 166.5,423.5 C 166.833,423.5 167.167,423.5 167.5,423.5C 169.167,423.5 170.833,423.5 172.5,423.5C 174.167,423.5 175.833,423.5 177.5,423.5C 180.5,423.5 183.5,423.5 186.5,423.5C 186.5,425.167 186.5,426.833 186.5,428.5C 183.167,428.5 179.833,428.5 176.5,428.5C 174.5,428.5 172.5,428.5 170.5,428.5C 170.157,430.483 170.824,431.817 172.5,432.5C 172.985,437.159 171.152,438.492 167,436.5C 166.421,435.072 166.588,433.738 167.5,432.5C 168.434,431.432 168.768,430.099 168.5,428.5C 164.5,428.5 160.5,428.5 156.5,428.5C 156.232,430.099 156.566,431.432 157.5,432.5C 159.085,437.079 157.585,438.413 153,436.5C 152.421,435.072 152.588,433.738 153.5,432.5C 154.124,432.083 154.457,431.416 154.5,430.5C 154.253,429.287 153.586,428.62 152.5,428.5C 151.193,426.777 151.193,424.943 152.5,423C 157.252,422.227 161.919,422.393 166.5,423.5 Z"/></g>
<g><path style="opacity:0.651" fill="#d696a7" d="M 307.5,422.5 C 307.167,424.833 305.833,426.167 303.5,426.5C 304.5,424.833 305.833,423.5 307.5,422.5 Z"/></g>
<g><path style="opacity:1" fill="#eaeaef" d="M 167.5,432.5 C 164.167,432.5 160.833,432.5 157.5,432.5C 156.566,431.432 156.232,430.099 156.5,428.5C 160.5,428.5 164.5,428.5 168.5,428.5C 168.768,430.099 168.434,431.432 167.5,432.5 Z"/></g>
<g><path style="opacity:1" fill="#e1e1e6" d="M 176.5,428.5 C 176.5,429.5 176.5,430.5 176.5,431.5C 175.292,432.234 173.959,432.567 172.5,432.5C 170.824,431.817 170.157,430.483 170.5,428.5C 172.5,428.5 174.5,428.5 176.5,428.5 Z"/></g>
<g><path style="opacity:0.596" fill="#daa2b2" d="M 303.5,426.5 C 302.5,428.167 301.167,429.5 299.5,430.5C 299.833,428.167 301.167,426.833 303.5,426.5 Z"/></g>
<g><path style="opacity:0.663" fill="#d296a5" d="M 372.5,426.5 C 371.5,428.167 370.167,429.5 368.5,430.5C 368.833,428.167 370.167,426.833 372.5,426.5 Z"/></g>
<g><path style="opacity:0.432" fill="#d6d6df" d="M 152.5,428.5 C 153.586,428.62 154.253,429.287 154.5,430.5C 154.457,431.416 154.124,432.083 153.5,432.5C 140.167,432.5 126.833,432.5 113.5,432.5C 113.5,431.5 113.5,430.5 113.5,429.5C 119.091,430.787 124.925,431.454 131,431.5C 137.658,431.096 144.158,431.096 150.5,431.5C 153.029,431.35 153.695,430.35 152.5,428.5 Z"/></g>
<g><path style="opacity:0.985" fill="#bcbdd4" d="M 393.5,428.5 C 394.404,429.209 394.737,430.209 394.5,431.5C 417.502,431.333 440.502,431.5 463.5,432C 467.933,434.331 468.6,437.498 465.5,441.5C 464.205,442.098 462.872,442.598 461.5,443C 434.333,443.167 407.167,443.333 380,443.5C 268.623,443.587 157.123,443.42 45.5,443C 40.4473,442.783 35.4473,442.283 30.5,441.5C 27.6318,438.005 27.9651,434.838 31.5,432C 54.831,431.5 78.1643,431.333 101.5,431.5C 101.5,433.5 101.5,435.5 101.5,437.5C 105.5,437.5 109.5,437.5 113.5,437.5C 113.5,435.833 113.5,434.167 113.5,432.5C 126.833,432.5 140.167,432.5 153.5,432.5C 152.588,433.738 152.421,435.072 153,436.5C 157.585,438.413 159.085,437.079 157.5,432.5C 160.833,432.5 164.167,432.5 167.5,432.5C 166.588,433.738 166.421,435.072 167,436.5C 171.152,438.492 172.985,437.159 172.5,432.5C 173.959,432.567 175.292,432.234 176.5,431.5C 176.261,433.467 176.594,435.301 177.5,437C 185.222,437.812 192.889,437.478 200.5,436C 201.38,434.644 201.714,433.144 201.5,431.5C 217.042,431.54 232.375,431.54 247.5,431.5C 247.178,433.722 247.845,435.556 249.5,437C 257.185,437.388 264.851,437.055 272.5,436C 273.38,434.644 273.714,433.144 273.5,431.5C 282.251,431.803 290.918,431.47 299.5,430.5C 299.205,432.735 299.539,434.735 300.5,436.5C 308.316,437.492 316.316,437.826 324.5,437.5C 324.833,435.5 325.167,433.5 325.5,431.5C 339.912,431.816 354.245,431.482 368.5,430.5C 368.5,432.833 368.5,435.167 368.5,437.5C 375.841,437.666 383.174,437.5 390.5,437C 391.416,436.626 392.25,436.126 393,435.5C 393.497,433.19 393.663,430.857 393.5,428.5 Z"/></g>
<g><path style="opacity:1" fill="#cb829c" d="M 324.5,420.5 C 324.833,420.5 325.167,420.5 325.5,420.5C 325.5,424.167 325.5,427.833 325.5,431.5C 325.167,433.5 324.833,435.5 324.5,437.5C 316.316,437.826 308.316,437.492 300.5,436.5C 308.167,436.5 315.833,436.5 323.5,436.5C 324.342,431.213 324.676,425.88 324.5,420.5 Z"/></g>
</svg>
